<?xml version="1.0" encoding="UTF-8" standalone="no"?>
<!-- Creator: CorelDRAW 2021.5 -->

<svg
   xml:space="preserve"
   width="20.872627mm"
   height="20.911385mm"
   version="1.1"
   style="clip-rule:evenodd;fill-rule:evenodd;image-rendering:optimizeQuality;shape-rendering:geometricPrecision;text-rendering:geometricPrecision"
   viewBox="0 0 275.88662 276.39911"
   id="svg5"
   sodipodi:docname="delivery2.svg"
   inkscape:version="1.3.1 (9b9bdc1480, 2023-11-25, custom)"
   xmlns:inkscape="http://www.inkscape.org/namespaces/inkscape"
   xmlns:sodipodi="http://sodipodi.sourceforge.net/DTD/sodipodi-0.dtd"
   xmlns="http://www.w3.org/2000/svg"
   xmlns:svg="http://www.w3.org/2000/svg"><sodipodi:namedview
   id="namedview5"
   pagecolor="#ffffff"
   bordercolor="#000000"
   borderopacity="0.25"
   inkscape:showpageshadow="2"
   inkscape:pageopacity="0.0"
   inkscape:pagecheckerboard="0"
   inkscape:deskcolor="#d1d1d1"
   inkscape:document-units="mm"
   showgrid="false"
   inkscape:zoom="4.9143921"
   inkscape:cx="27.572078"
   inkscape:cy="42.121181"
   inkscape:window-width="1850"
   inkscape:window-height="1016"
   inkscape:window-x="0"
   inkscape:window-y="0"
   inkscape:window-maximized="1"
   inkscape:current-layer="Layer_x0020_1" />
 <defs
   id="defs1">
  <style
   type="text/css"
   id="style1">
   <![CDATA[
    .str0 {stroke:#B2A2A0;stroke-width:4.66;stroke-linecap:round;stroke-linejoin:round;stroke-miterlimit:22.9256}
    .fil1 {fill:none}
    .fil0 {fill:#9F8A88;fill-rule:nonzero;fill-opacity:0.800000}
   ]]>
  </style>
 </defs>
 <g
   id="Layer_x0020_1"
   inkscape:label="Layer 1"
   inkscape:groupmode="layer"
   transform="translate(-16.08,-120.54)">
  <metadata
   id="CorelCorpID_0Corel-Layer" />
  
  <g
   id="g6"><path
     id="path1"
     class="fil0"
     d="m 103.20176,120.54 c -0.87975,0 -1.6144,0.16317 -2.10376,0.28688 -0.48936,0.1237 -0.7287,0.19097 -1.099695,0.21857 l 0.321025,0.30737 a 2.3302329,2.3302329 0 0 0 -1.878356,0.44397 c -1.760263,1.94555 -1.857869,4.35024 -1.857869,6.11321 0,3.55792 -0.0986,15.54129 -0.116117,27.07571 -0.0088,5.76722 0.001,11.4266 0.05464,15.89434 0.02684,2.23388 0.06452,4.16969 0.116117,5.6829 0.05159,1.51321 0.08342,2.474 0.225403,3.30591 a 2.3302329,2.3302329 0 0 0 0,0.007 c 0.13493,0.78447 0.319945,1.47017 0.703532,2.13792 0.383587,0.66776 1.056558,1.27642 1.71443,1.57099 1.31575,0.58914 2.02606,0.39609 2.53408,0.47813 1.00228,0.27585 1.73076,0.28004 2.64337,0.28004 3.57018,0 16.58523,0.0874 29.13849,0.10246 6.27663,0.007 12.43894,-0.002 17.28091,-0.0546 2.42099,-0.0263 4.50959,-0.066 6.12687,-0.11612 1.61728,-0.0501 2.61072,-0.0742 3.46984,-0.21857 a 2.3302329,2.3302329 0 0 0 0.007,0 c 1.99417,-0.33692 3.34374,-2.05559 3.79087,-3.46302 0.44714,-1.40741 0.42348,-2.70928 0.42348,-3.63377 0,-3.42412 0.10976,-15.58111 0.12978,-27.26696 0.01,-5.84292 -10e-6,-11.574 -0.0546,-16.0651 -0.0273,-2.24556 -0.0699,-4.18488 -0.12295,-5.6829 -0.0531,-1.49801 -0.0666,-2.36151 -0.24589,-3.2581 a 2.3302329,2.3302329 0 0 0 -0.0751,-0.2937 c -0.18717,-0.55113 -0.34607,-0.95943 -0.60107,-1.50269 a 2.3302329,2.3302329 0 0 0 -0.93577,-1.02456 c -1.65792,-0.96266 -3.43359,-1.3251 -5.21843,-1.3251 z m 105.74144,3.77038 c -11.61839,0.0588 -23.75966,0.23907 -27.10303,0.23907 a 2.3299999,2.3299999 0 0 0 -0.60791,0.25272 2.3299999,2.3299999 0 0 0 -0.2254,-0.0956 c -0.33771,0.12912 -0.32187,0.11043 -0.4713,0.11612 -0.14944,0.006 -0.55309,-0.0205 -1.22264,-0.0205 a 2.3302329,2.3302329 0 0 0 -2.17207,1.4822 c -0.19854,0.51162 -0.18068,0.65557 -0.21174,0.89478 -0.0311,0.23922 -0.0537,0.4911 -0.0751,0.7855 -0.0429,0.58881 -0.0786,1.33725 -0.10929,2.2472 -0.0613,1.81989 -0.10651,4.27639 -0.13661,7.19241 -0.0602,5.83203 -0.0653,13.48119 -0.0478,21.29719 0.0327,14.61082 0.14184,28.39782 0.1571,33.33919 H 39.993233 a 2.3302329,2.3302329 0 0 0 -0.368841,0.0273 c -1.368052,0.21551 -2.578297,0.28761 -4.070919,0.90844 a 2.3302329,2.3302329 0 0 0 -1.263624,1.27046 c -0.569601,1.39088 -0.587126,2.22519 -0.819648,2.9439 a 2.3302329,2.3302329 0 0 0 -0.109287,0.71719 v 22.49934 a 2.3302329,2.3302329 0 0 0 0.02732,0.36884 c 0.209954,1.31222 0.63505,2.89659 1.844208,4.22802 a 2.3302329,2.3302329 0 0 0 1.680279,0.76501 c 1.072361,0.0217 -0.134334,-0.1818 0.8538,0.1366 a 2.3302329,2.3302329 0 0 0 0.717192,0.11612 h 19.213918 c 0.05496,0.55747 0.108971,1.12865 0.18442,1.83738 0.19932,1.87232 0.486085,4.09591 1.140677,6.14736 a 2.3302329,2.3302329 0 0 0 0.218573,0.49179 c 0.90864,1.51131 1.636762,3.06988 2.827786,4.88373 a 2.3302329,2.3302329 0 0 0 0.348351,0.40983 l 4.549047,4.30315 a 2.3302329,2.3302329 0 0 0 0.730852,0.46447 c 1.111692,0.44841 3.169334,1.38409 3.975294,1.8647 a 2.3302329,2.3302329 0 0 0 1.154338,0.32786 c 0.905231,0.0163 0.48963,0.008 1.570992,0.37567 a 2.3302329,2.3302329 0 0 0 0.655718,0.12295 l 6.072227,0.24589 a 2.3302329,2.3302329 0 0 0 0.799157,-0.10929 c 0.968877,-0.3092 -0.05843,-0.1366 1.065542,-0.1366 a 2.3302329,2.3302329 0 0 0 0.737683,-0.12295 c 0.37549,-0.12516 0.76147,-0.24656 1.154338,-0.37567 h 0.635227 a 2.3302329,2.3302329 0 0 0 1.202151,-0.33469 c 0.757626,-0.45605 2.381694,-1.17344 3.456183,-1.60515 a 2.3302329,2.3302329 0 0 0 0.375672,-0.19125 c 1.996799,-1.26082 4.019606,-3.20832 5.751197,-5.43017 1.731592,-2.22184 3.179275,-4.65974 3.640604,-7.25388 a 2.3302329,2.3302329 0 0 0 0.02732,-0.18442 l 0.55327,-5.73071 h 78.51545 a 2.3299999,2.3299999 0 0 0 0.0205,0.007 2.3299999,2.3299999 0 0 0 0.0205,-0.007 h 18.39427 l 0.51911,4.50807 a 2.3302329,2.3302329 0 0 0 0.10245,0.44397 c 1.0142,3.13767 1.82034,4.45521 2.82779,6.97384 a 2.3302329,2.3302329 0 0 0 0.46447,0.72402 l 3.79087,4.05043 a 2.3302329,2.3302329 0 0 0 0.39616,0.34152 c 2.53153,1.71282 3.98398,2.18867 5.92879,3.35373 a 2.3302329,2.3302329 0 0 0 1.15434,0.33469 c 0.90523,0.0163 0.48963,0.008 1.57099,0.37567 a 2.3302329,2.3302329 0 0 0 0.65572,0.12295 l 6.07222,0.24589 a 2.3302329,2.3302329 0 0 0 0.79916,-0.10929 c 0.96888,-0.3092 -0.0584,-0.1366 1.06554,-0.1366 a 2.3302329,2.3302329 0 0 0 0.73086,-0.12295 c 0.37549,-0.12516 0.76831,-0.24656 1.16116,-0.37567 h 0.63523 a 2.3302329,2.3302329 0 0 0 0.61474,-0.0888 c 1.48528,-0.40755 2.85148,-1.24466 4.39878,-2.21305 1.54729,-0.96838 2.96581,-1.93442 3.96163,-2.93024 a 2.3302329,2.3302329 0 0 0 0.24589,-0.28688 l 3.28543,-4.54904 a 2.3302329,2.3302329 0 0 0 0.2254,-0.38251 c 0.6144,-1.3198 0.89133,-2.21155 1.40706,-3.07368 a 2.3302329,2.3302329 0 0 0 0.33469,-1.19532 v -0.63522 c 0.12912,-0.39287 0.25051,-0.78568 0.37567,-1.16117 a 2.3302329,2.3302329 0 0 0 0.11612,-0.60791 l 0.19808,-3.60645 h 15.9285 a 2.3302329,2.3302329 0 0 0 0.36201,-0.0273 c 1.24141,-0.19516 2.42649,-0.36269 3.44935,-1.44122 1.01982,-1.07531 1.09357,-2.18572 1.26362,-3.27176 0.0889,-0.55113 0.0571,-0.58297 0.0683,-0.95625 0.0112,-0.37328 0.0187,-0.85749 0.0273,-1.45488 0.0172,-1.19479 0.0324,-2.82273 0.041,-4.74713 0.0172,-3.84878 0.0188,-8.8844 0,-13.96134 -0.0188,-5.07693 -0.0581,-10.19531 -0.11611,-14.21406 -0.029,-2.00938 -0.0626,-3.74205 -0.10246,-5.06816 -0.0399,-1.32612 -0.0454,-2.04213 -0.16393,-2.80046 l -0.49862,-3.73623 a 2.3302329,2.3302329 0 0 0 -0.14344,-0.54643 l -17.19212,-43.72823 a 2.3302329,2.3302329 0 0 0 -0.082,-0.19125 c -0.76561,-1.52615 -1.37051,-2.79434 -2.73899,-3.68842 -1.36848,-0.89407 -2.71835,-1.03135 -4.80177,-1.35925 a 2.3302329,2.3302329 0 0 0 -0.36201,-0.0273 h -2.1106 c -0.86869,-0.20246 -1.60979,-0.2244 -2.83462,-0.28688 -1.48267,-0.0756 -3.39742,-0.12923 -5.62142,-0.16393 -4.44799,-0.0694 -10.13297,-0.0704 -15.94215,-0.041 z m -105.74144,0.88795 h 54.36999 c 0.40714,0 1.59036,0.33722 2.27453,0.54644 9.6e-4,0.0672 0.0957,1.01453 0.14344,2.36331 0.0508,1.43463 0.0891,3.34855 0.11611,5.57361 0.0541,4.45013 0.0647,10.16475 0.0547,15.9968 -0.02,11.66411 -0.12295,23.76474 -0.12295,27.28062 0,0.84551 -0.0595,1.76231 -0.20491,2.21988 -0.0655,0.20613 -0.0575,0.26788 -0.0478,0.28688 -0.01,-0.008 -0.033,-0.008 -0.082,0 -0.0649,0.0108 -1.27286,0.10193 -2.83462,0.15027 -1.56283,0.0484 -3.63485,0.09 -6.03807,0.11611 -4.80645,0.0523 -10.95917,0.0622 -17.22627,0.0547 -12.53419,-0.015 -25.49553,-0.10929 -29.14532,-0.10929 -1.26263,0 -0.64814,0.15558 -1.5505,-0.13661 a 2.3302329,2.3302329 0 0 0 -0.34835,-0.082 c -0.82804,-0.13372 -0.94769,-0.12187 -1.03139,-0.0956 -0.0306,-0.1006 -0.0317,-0.0613 -0.0683,-0.27321 v -0.007 c -0.0181,-0.10699 -0.11439,-1.22449 -0.16393,-2.67752 -0.0496,-1.4541 -0.0895,-3.36635 -0.11612,-5.58044 -0.0532,-4.42817 -0.0634,-10.07635 -0.0546,-15.83287 0.0175,-11.51304 0.11612,-23.44048 0.11612,-27.08254 0,-1.17728 0.13837,-1.89594 0.40982,-2.45894 0.17158,-0.0413 0.46014,-0.0702 0.58742,-0.10246 0.41064,-0.1038 0.59283,-0.15027 0.96308,-0.15027 z m 105.76193,3.77038 c 5.79329,-0.0293 11.46701,-0.0274 15.85336,0.041 2.19318,0.0342 4.06529,0.0864 5.45066,0.1571 1.38536,0.0707 2.60447,0.31344 2.18573,0.17759 a 2.3302329,2.3302329 0 0 0 0.71719,0.11611 h 2.04912 c 1.85052,0.3015 2.72262,0.54631 2.84828,0.6284 0.12809,0.0837 0.39308,0.43784 1.09286,1.82372 l 17.02819,43.32523 0.4713,3.51083 a 2.3302329,2.3302329 0 0 0 0.007,0.0478 c -0.0185,-0.11834 0.0707,0.93639 0.10929,2.21988 0.0386,1.28349 0.0737,3.00455 0.10245,4.99985 0.0576,3.99061 0.0906,9.09389 0.10929,14.15942 0.0187,5.06555 0.0239,10.09662 0.007,13.92719 -0.009,1.91529 -0.0242,3.53201 -0.041,4.69932 -0.008,0.58366 -0.0174,1.05591 -0.0273,1.38657 -0.01,0.33066 -0.0705,0.74449 -0.007,0.34835 a 2.3302329,2.3302329 0 0 0 0,0.0137 c -0.0612,0.38923 -0.10538,0.54296 -0.14344,0.68987 -0.11001,0.0302 -0.27573,0.0669 -0.5396,0.11612 h -16.16756 c -0.1661,-0.61651 -0.41733,-1.5488 -1.09287,-3.46985 -0.86764,-2.46729 -2.42515,-5.50982 -5.58044,-8.11451 -1.55035,-1.28225 -4.09831,-3.18582 -6.61182,-3.96847 a 2.3302329,2.3302329 0 0 0 -0.50545,-0.0956 c -0.18315,-0.0147 -0.22726,-0.0263 -0.32103,-0.041 -0.0425,-0.0321 0.12867,0.0381 -0.21857,-0.16393 a 2.3302329,2.3302329 0 0 0 -0.90162,-0.30054 l -6.57084,-0.75818 a 2.3299999,2.3299999 0 0 0 -0.89479,0.25956 2.3299999,2.3299999 0 0 0 -0.23223,-0.10246 c -0.37288,0.14542 -0.29631,0.10693 -0.34835,0.10929 -0.052,0.002 -0.41941,-0.0205 -1.07237,-0.0205 a 2.3299999,2.3299999 0 0 0 -0.51228,0.21174 2.3299999,2.3299999 0 0 0 -0.17759,0.007 c 0.019,-4.6e-4 -0.0518,-0.006 -0.10246,0.007 a 2.3299999,2.3299999 0 0 0 -0.23223,0.0137 c -0.157,0.0758 -0.277,0.13417 -0.40983,0.19808 a 2.3299999,2.3299999 0 0 0 -0.44397,-0.007 c -0.24753,0.0964 -0.052,0.0385 -0.14344,0.0751 -0.0843,0.007 -0.11627,0.0137 -0.26639,0.0137 a 2.3299999,2.3299999 0 0 0 -0.18442,0.18442 2.3299999,2.3299999 0 0 0 -0.84014,0.0546 l -0.51228,0.2459 a 2.3299999,2.3299999 0 0 0 -0.0273,0.0341 c -0.19605,0.0936 -0.40392,0.19372 -0.50545,0.24589 -0.0783,-10e-4 -0.10144,-0.007 -0.21174,-0.007 a 2.3299999,2.3299999 0 0 0 -0.17759,0.18442 2.3299999,2.3299999 0 0 0 -0.30737,-0.0683 c -0.0351,0.0223 -0.0737,0.072 -0.10929,0.0956 a 2.3299999,2.3299999 0 0 0 -0.43031,0.0273 l -0.51228,0.25272 a 2.3299999,2.3299999 0 0 0 -0.0273,0.0342 l -0.45764,0.22541 a 2.3299999,2.3299999 0 0 0 -0.0137,0.007 l -0.49862,0.25272 a 2.3299999,2.3299999 0 0 0 -0.0888,0.28005 2.3299999,2.3299999 0 0 0 -0.30736,-0.041 c -1.58008,1.24517 -3.60736,2.1419 -5.66924,4.6515 a 2.3302329,2.3302329 0 0 0 -0.12977,0.17076 c -1.61153,2.37633 -3.83176,5.51129 -4.28266,9.31667 h -16.74815 v -26.97326 a 2.3299999,2.3299999 0 0 0 0,-0.0137 c 0,-3.79994 -0.12896,-20.06908 -0.16393,-35.68201 -0.0175,-7.80646 -0.012,-15.44215 0.0478,-21.23572 0.0299,-2.89678 0.0708,-5.33137 0.12977,-7.08312 0.015,-0.44414 0.031,-0.70201 0.0478,-1.05188 0.16933,-0.0291 0.33572,-0.064 0.51228,-0.10929 3.56752,-0.002 15.46656,-0.18066 27.00057,-0.23907 z M 47.322254,150.34787 a 2.3302329,2.3302329 0 0 0 -0.717192,0.11612 c -0.951694,0.3059 0.186371,0.1366 -0.805988,0.1366 a 2.3302329,2.3302329 0 0 0 -1.318267,0.40983 c -0.860222,0.59228 -1.619365,1.41676 -2.03546,2.37698 -0.416093,0.96022 -0.498619,1.91333 -0.498619,2.83461 0,2.03528 -0.08306,7.2634 -0.09562,12.32888 -0.0063,2.53274 0.0022,5.03311 0.05464,7.11045 0.05253,2.07732 0.100349,3.58347 0.34152,4.78128 0.31048,1.55103 1.559876,2.97524 2.752651,3.35372 1.131731,0.35911 1.849529,0.26522 1.912513,0.25273 1.012895,0.28178 1.748727,0.28004 2.677517,0.28004 2.419684,0 10.262435,0.08 17.89565,0.0888 3.816608,0.004 7.589275,-0.0109 10.634934,-0.0615 3.045659,-0.0506 5.127056,-0.0773 6.495711,-0.30737 1.99418,-0.33691 3.350572,-2.06242 3.797703,-3.46985 0.447132,-1.40742 0.423485,-2.70245 0.423485,-3.62694 0,-1.21703 0.06704,-6.5753 0.0683,-11.76195 6.27e-4,-2.59332 -0.0133,-5.15352 -0.06147,-7.19241 -0.02408,-1.01945 -0.05744,-1.90648 -0.102456,-2.62288 -0.04501,-0.71639 0.01506,-1.02561 -0.266386,-1.89202 a 2.3302329,2.3302329 0 0 0 -0.293707,-0.60107 c -1.302127,-1.89119 -3.61368,-2.53408 -5.464321,-2.53408 z m 0.02049,4.66516 H 82.71739 c 0.894417,0 1.143427,0.0554 1.352419,0.2459 0.0235,0.15721 -4.98e-4,0.0765 0.02049,0.40982 0.03838,0.61086 0.07237,1.45385 0.09563,2.43845 0.04652,1.96923 0.06209,4.50896 0.06147,7.08313 -0.0012,5.14834 -0.0683,10.38898 -0.0683,11.76195 1e-6,0.84551 -0.06638,1.76231 -0.211743,2.21988 -0.06549,0.20613 -0.05065,0.26788 -0.04098,0.28688 -0.0099,-0.008 -0.03301,-0.0151 -0.08196,-0.007 -0.327677,0.0549 -2.80475,0.19617 -5.79901,0.24589 -2.995267,0.0497 -6.750843,0.0659 -10.55297,0.0615 -7.604254,-0.009 -15.382175,-0.0888 -17.90248,-0.0888 -1.271563,0 -0.66181,0.15558 -1.564162,-0.13661 a 2.3302329,2.3302329 0 0 0 -0.34152,-0.082 c -0.688073,-0.11121 -0.730418,-0.079 -0.874291,-0.0683 -0.06177,-0.37118 -0.19699,-1.9047 -0.245895,-3.83868 -0.05059,-2.00079 -0.06086,-4.47092 -0.05464,-6.98067 0.01244,-5.01951 0.102456,-10.17782 0.102456,-12.34254 0,-0.6187 0.07038,-0.89379 0.109286,-0.98357 0.01531,-0.0353 0.129109,-0.11234 0.1571,-0.15027 0.147669,-0.0247 0.321677,-0.0402 0.464467,-0.0751 z m -7.124108,41.68594 H 176.73103 v 24.65775 h -76.65759 c -0.003,-0.35425 0.0553,-0.91018 -0.184421,-1.80323 -0.146968,-0.54588 -0.195824,-0.54966 -0.314199,-0.80599 -0.118375,-0.25633 -0.270519,-0.56657 -0.450806,-0.9221 -0.360574,-0.71105 -0.837409,-1.60894 -1.386571,-2.55457 -1.098325,-1.89127 -2.271962,-3.88874 -3.927481,-5.25258 -1.645716,-1.35221 -4.104765,-3.36308 -6.864553,-4.21436 a 2.3302329,2.3302329 0 0 0 -0.498619,-0.0956 c -0.183151,-0.0147 -0.220428,-0.0263 -0.314199,-0.041 -0.04247,-0.0321 0.128683,0.0381 -0.218572,-0.16393 a 2.3302329,2.3302329 0 0 0 -0.908444,-0.30054 l -6.570845,-0.75818 a 2.3299999,2.3299999 0 0 0 -0.580584,0.16393 2.3299999,2.3299999 0 0 0 -0.539602,-0.007 c -0.372881,0.14542 -0.30314,0.10693 -0.355181,0.10929 -0.05204,0.002 -0.412586,-0.0205 -1.065542,-0.0205 a 2.3299999,2.3299999 0 0 0 -0.198082,0.19125 2.3299999,2.3299999 0 0 0 -0.826479,0.0478 c -0.134183,0.0648 0.0474,-0.011 -0.07513,0.0478 a 2.3299999,2.3299999 0 0 0 -0.362011,0.15026 2.3299999,2.3299999 0 0 0 -0.430316,-0.007 c -0.149318,0.0589 -0.149304,0.0781 -0.198081,0.10929 -0.05907,-0.009 -0.05946,-0.0205 -0.204912,-0.0205 a 2.3299999,2.3299999 0 0 0 -0.607906,0.25272 c -0.0657,-0.001 -0.08125,0 -0.163929,0 a 2.3299999,2.3299999 0 0 0 -0.341521,0.14344 2.3299999,2.3299999 0 0 0 -0.143438,-0.0341 c -0.05401,0.0343 -0.115808,0.11252 -0.17076,0.15027 -0.04294,-4.4e-4 -0.04039,0 -0.08879,0 a 2.3299999,2.3299999 0 0 0 -0.03415,0.0273 2.3299999,2.3299999 0 0 0 -0.457637,0.082 c -0.05035,0.032 -0.105919,0.10853 -0.157099,0.14343 -0.05124,-6.4e-4 -0.05638,-0.007 -0.116117,-0.007 a 2.3299999,2.3299999 0 0 0 -0.17759,0.18442 2.3299999,2.3299999 0 0 0 -0.307369,-0.0683 c -0.08451,0.0536 -0.17966,0.16836 -0.266385,0.23223 a 2.3299999,2.3299999 0 0 0 -0.300538,-0.10245 l -0.498619,0.25272 a 2.3299999,2.3299999 0 0 0 -0.0068,0.0205 l -0.478129,0.23224 a 2.3299999,2.3299999 0 0 0 0,0.0137 l -0.484958,0.23906 a 2.3299999,2.3299999 0 0 0 -0.102456,0.29371 2.3299999,2.3299999 0 0 0 -0.321029,-0.0342 c -0.701863,0.55369 -1.799734,1.20962 -2.855107,1.89885 a 2.3302329,2.3302329 0 0 0 -0.430316,0.36201 l -3.538147,3.78404 a 2.3302329,2.3302329 0 0 0 -0.464468,0.72403 c -0.89962,2.23967 -1.837147,3.83564 -2.820955,6.68013 a 2.3302329,2.3302329 0 0 0 -0.09563,0.37567 c -0.03389,0.20335 0.0023,0.12452 -0.01366,0.30054 H 38.511036 c -0.006,-0.001 -0.01446,0.002 -0.02049,0 -0.190459,-0.28667 -0.356665,-0.49965 -0.471297,-1.23631 v -21.91875 c 0.129601,-0.47305 0.230325,-0.79852 0.300537,-1.12019 0.51485,-0.1212 0.966026,-0.23867 1.898852,-0.3825 z m 174.380134,8.35358 a 2.3299999,2.3299999 0 0 0 -0.082,0.082 2.3299999,2.3299999 0 0 0 -0.1571,0 c 0.0632,-0.0249 -0.0131,0.007 0.0888,-0.0342 0.10379,-0.0423 0.0741,-0.0201 0.15027,-0.0478 z m -2.80729,0.76501 a 2.3299999,2.3299999 0 0 0 -0.19125,0.21174 2.3299999,2.3299999 0 0 0 -0.0888,0.0888 2.3299999,2.3299999 0 0 0 -0.37567,0.0273 c 0.0868,-0.0183 0.27059,-0.16067 0.3142,-0.16393 0.21164,-0.0158 0.20218,0.001 0.17759,0 -0.026,-0.001 -0.16218,-0.005 -0.25273,-0.007 -0.0469,0.0279 -0.0402,0.028 0.28005,-0.10245 0.1097,-0.0447 0.0789,-0.0305 0.13661,-0.0546 z m -140.801888,0.48495 a 2.3299999,2.3299999 0 0 0 -0.116117,0.11612 2.3299999,2.3299999 0 0 0 -0.0683,-0.0273 c 0.07252,-0.0305 0.117273,-0.0665 0.184421,-0.0888 z m 7.267546,2.81413 5.737537,0.66255 c 0.111139,0.0922 0.12967,0.15996 0.621566,0.34835 0.577555,0.22119 0.747829,0.16366 1.004069,0.1571 1.271513,0.41119 3.745516,2.1178 5.225257,3.33323 0.444477,0.36616 1.865268,2.27957 2.861938,3.99579 0.498336,0.85811 0.943575,1.69119 1.263624,2.32233 0.160025,0.31556 0.284327,0.582 0.368842,0.76501 0.02044,0.0443 0.03088,0.0769 0.04781,0.12295 0.01711,0.0969 0.0096,0.30771 0.05464,1.03139 0.03122,0.50187 0.357994,1.26258 0.614736,1.96715 l -0.710362,7.32902 c -0.236772,1.28743 -1.288245,3.34226 -2.718499,5.17745 -1.423393,1.82638 -3.205297,3.47887 -4.514895,4.31681 -0.926036,0.37534 -2.040996,0.88332 -3.087341,1.44121 h -0.519111 a 2.3302329,2.3302329 0 0 0 -0.730853,0.12295 c -0.471738,0.15725 -0.952124,0.31107 -1.454875,0.47813 -0.345372,0.0206 -0.71576,0.079 -1.045052,0.15027 l -5.949279,-0.2459 c -0.46143,-0.15375 -1.018858,-0.25085 -1.598314,-0.33469 -1.203232,-0.67965 -2.66871,-1.32707 -3.825024,-1.80322 l -4.050428,-3.82503 c -0.857334,-1.33482 -1.534056,-2.67553 -2.424792,-4.19386 -0.441441,-1.44582 -0.732712,-3.36008 -0.915274,-5.07499 -0.09409,-0.88384 -0.163035,-1.7095 -0.239064,-2.42479 -0.01923,-0.1809 -0.06546,-0.33079 -0.08196,-0.49179 0.0048,-0.007 0.0089,-0.0132 0.01366,-0.0205 0.298565,-0.45244 0.497841,-1.08197 0.539602,-1.52318 0.07098,-0.74996 0.01478,-0.75454 0.02049,-0.91528 0.771921,-2.17015 1.564489,-3.65873 2.465775,-5.82633 l 3.07368,-3.29225 c 0.777959,-0.49762 1.713987,-1.08009 2.629704,-1.76224 l 0.423485,-0.20492 a 2.3299999,2.3299999 0 0 0 0.03415,-0.0273 l 0.450807,-0.21857 a 2.3299999,2.3299999 0 0 0 0.02732,-0.0205 c 0.04169,-0.001 0.02828,0.006 0.102456,0 0.07493,-0.006 0.330459,-0.20269 0.491789,-0.2459 0.04051,0.003 0.07004,0.008 0.266386,-0.007 0.07812,-0.006 0.348289,-0.2056 0.51911,-0.25272 0.04136,0.003 0.05915,0.006 0.232234,-0.007 0.115226,-0.009 0.472011,-0.26735 0.758175,-0.37567 0.299365,-0.0413 0.57526,-0.086 0.812817,-0.1571 0.314328,0.0355 0.435734,0.18879 1.318268,-0.17076 0.204552,-0.0833 0.01721,-0.0123 0.109286,-0.0547 0.2075,0.009 0.390132,0.0201 0.68987,0.007 0.329502,-0.0149 0.713821,-0.15385 1.086034,-0.25272 z m 139.831972,0 5.73753,0.66255 c 0.11114,0.0922 0.12284,0.15996 0.61474,0.34835 0.57084,0.21862 0.74424,0.16335 0.99724,0.1571 0.85872,0.28443 3.88642,2.17093 4.98619,3.08051 2.39312,1.97486 3.46007,4.07582 4.15971,6.06539 0.55914,1.59001 0.79301,3.02631 1.49586,4.50807 -0.005,-0.0148 0.0543,-0.042 -0.0546,0.29371 a 2.3302329,2.3302329 0 0 0 -0.10929,0.58741 l -0.23223,4.24168 c -0.13687,0.41569 -0.27106,0.8268 -0.40299,1.22264 a 2.3302329,2.3302329 0 0 0 -0.12295,0.73768 v 0.51911 c -0.48547,0.95009 -0.87245,1.84297 -1.20898,2.59556 l -2.99855,4.14605 c -0.38911,0.37172 -1.72295,1.38307 -3.06002,2.21988 -1.30384,0.81601 -2.7151,1.47673 -2.99854,1.58465 h -0.55327 a 2.3302329,2.3302329 0 0 0 -0.73768,0.12295 c -0.47174,0.15725 -0.95213,0.31107 -1.45488,0.47813 -0.34537,0.0206 -0.71576,0.079 -1.04505,0.15027 l -5.94245,-0.2459 c -0.43774,-0.14586 -0.97623,-0.22913 -1.51634,-0.3142 -2.03936,-1.1928 -3.32466,-1.68068 -5.2799,-2.97805 l -3.2786,-3.49717 c -0.97416,-2.36493 -1.67265,-3.61466 -2.49309,-6.10637 l -0.60108,-5.19794 c 0.0451,-0.0673 0.0842,-0.0619 0.12295,-0.13661 0.51206,-0.98474 0.2272,-0.68415 0.38933,-1.15433 a 2.3302329,2.3302329 0 0 0 0.12978,-0.71037 c 0.0478,-2.24464 1.81946,-5.12565 3.5723,-7.71835 1.34117,-1.6063 2.70643,-2.25236 4.59686,-3.68842 l 0.40299,-0.19808 a 2.3299999,2.3299999 0 0 0 0.0137,-0.007 l 0.46447,-0.23223 a 2.3299999,2.3299999 0 0 0 0.0273,-0.0205 c 0.0404,-0.001 0.0204,0.005 0.0888,0 0.0973,-0.007 0.41922,-0.24613 0.64888,-0.32103 0.21747,0.0308 0.32246,0.14083 0.96992,-0.12295 1.00508,-0.40948 0.42168,-0.24667 0.51911,-0.29371 a 2.3299999,2.3299999 0 0 0 0.0273,-0.0205 l 0.0956,-0.0478 c 0.18069,0.006 0.28752,0.0628 0.6967,-0.0478 0.63056,-0.17042 0.53447,-0.19913 0.6284,-0.25956 0.20226,0.0125 0.2722,0.12059 0.81965,-0.10245 0.20455,-0.0833 0.0172,-0.0123 0.10928,-0.0547 0.2075,0.009 0.39013,0.0201 0.68987,0.007 0.3295,-0.0149 0.71383,-0.15385 1.08604,-0.25272 z M 70.887137,289.96809 c -4.849995,0 -8.754632,1.67303 -11.734629,4.99303 -2.979997,3.31999 -4.473913,7.61897 -4.473913,12.88896 0,5.27 1.493916,9.56897 4.473913,12.88897 2.979997,3.33 6.884634,4.99302 11.734629,4.99302 4.849995,0 8.761462,-1.67302 11.741459,-4.99302 2.979997,-3.32 4.473912,-7.61897 4.473912,-12.88897 0,-5.26999 -1.493915,-9.56897 -4.473912,-12.88896 -2.979997,-3.33 -6.891464,-4.99303 -11.741459,-4.99303 z m 36.733893,0 c -4.68999,0 -8.497752,1.67303 -11.447749,4.99303 -2.949997,3.31999 -4.4261,7.61897 -4.4261,12.88896 0,5.33 1.493424,9.64679 4.453421,12.93678 2.959997,3.29 6.770438,4.94521 11.420428,4.94521 2.26,0 4.31835,-0.35969 6.18835,-1.09969 1.86999,-0.73 3.37172,-1.6956 4.52172,-2.8756 1.14,-1.18 2.04801,-2.44454 2.69801,-3.80453 0.66,-1.36 1.06947,-2.74289 1.22947,-4.15289 h -5.8878 -0.0137 c -0.33,1.7 -1.23583,3.22954 -2.74583,4.56954 -1.49999,1.34 -3.50026,2.00814 -5.99026,2.00814 -2.97999,0 -5.37192,-1.17034 -7.17192,-3.49034 -1.799997,-2.32999 -2.698007,-5.33662 -2.698007,-9.03662 0,-3.72999 0.89801,-6.74711 2.698007,-9.05711 1.8,-2.31 4.19193,-3.46301 7.17192,-3.46301 2.39,0 4.3112,0.60689 5.7512,1.81689 1.44,1.20999 2.43073,2.78297 2.95073,4.71297 h 5.84 c -0.53,-3.43999 -2.05638,-6.27751 -4.57637,-8.51751 -2.52,-2.25 -5.83556,-3.37422 -9.96556,-3.37422 z m 80.18208,0.58059 V 325.131 l 0.007,0.007 h 13.79741 c 3.51,0 6.31139,-0.90533 8.40139,-2.72533 2.09,-1.82 3.14199,-4.19362 3.14199,-7.10362 0,-2.29 -0.58908,-4.11847 -1.76908,-5.49847 -1.18,-1.37 -2.54458,-2.29265 -4.08458,-2.75265 1.24,-0.53 2.3098,-1.43533 3.1898,-2.72533 0.89,-1.3 1.33193,-2.89495 1.33193,-4.79494 0,-2.62 -0.93047,-4.76474 -2.80047,-6.45473 -1.86999,-1.69 -4.48496,-2.53408 -7.85496,-2.53408 z m 31.41984,0 V 325.131 h 5.79901 l 16.79596,-25.29981 V 325.131 h 5.7512 v -34.58232 h -5.7512 l -16.79596,25.35445 v -25.35445 z m 36.34457,0 V 325.131 h 5.60092 v -24.99927 l 10.25927,24.849 h 4.7198 l 10.27293,-24.849 V 325.131 h 5.54628 v -34.58232 h -7.11728 l -10.99694,26.76834 -11.05159,-26.76834 h -7.21973 z m -130.59727,0.0137 v 5.25941 h 10.90132 v 29.31608 h 5.84682 v -29.31608 h 10.85351 v -5.25941 z m 39.09039,0 -12.82067,34.57549 h 6.14053 l 2.84828,-8.19648 h 13.6608 l 2.99855,8.19648 h 6.14053 l -12.86848,-34.57549 h -6.09271 z m -140.371573,0.007 -1.127017,17.49266 c -0.229999,3.39999 -0.621659,6.00764 -1.181659,7.82764 -0.549999,1.80999 -1.422384,3.12797 -2.602383,3.94797 H 16.08 v 11.89172 h 5.600929 v -6.57767 h 23.769795 v 6.57767 h 5.600929 v -11.89172 l -0.01366,0.0137 h -4.221188 v -29.28193 z m 47.19807,4.75396 c 3.139997,0 5.642951,1.1635 7.492949,3.4835 1.849999,2.33 2.779974,5.34346 2.779974,9.04345 0,3.7 -0.929975,6.71663 -2.779974,9.03662 -1.849998,2.33 -4.352952,3.49034 -7.492949,3.49034 -3.149997,0 -5.63563,-1.14619 -7.465628,-3.45618 v -0.0205 c -1.829999,-2.30999 -2.752652,-5.32711 -2.752652,-9.05711 0,-3.72999 0.922653,-6.75394 2.752652,-9.06394 1.839998,-2.31 4.325631,-3.45618 7.465628,-3.45618 z M 193.6431,295.5624 h 6.68013 l 0.007,0.007 c 1.77,0 3.1524,0.40997 4.1324,1.24997 0.98,0.83 1.46853,1.99301 1.46853,3.46301 0,1.4 -0.45974,2.53837 -1.37974,3.40837 -0.92,0.87 -2.24212,1.29778 -3.98212,1.29778 h -6.92603 z m -164.694625,0.25956 h 12.028336 v 24.01569 H 25.212246 c 0.919999,-1.05 1.577647,-2.42606 1.987647,-4.14606 0.409999,-1.71999 0.733086,-4.27322 0.963086,-7.64321 z m 138.124365,1.7076 5.0545,14.34384 h -10.06801 z m 26.57026,12.2674 h 7.52027 c 1.82985,0.004 3.28259,0.47017 4.37829,1.38657 1.1,0.92 1.64613,2.17721 1.64613,3.77721 0,1.64 -0.55711,2.91137 -1.68711,3.81136 -1.13,0.9 -2.64222,1.34559 -4.54222,1.34559 H 193.6431 Z M 60.778143,355.19159 c -3.279996,0 -6.089208,0.85556 -8.449206,2.59555 -2.359997,1.74 -3.692124,4.16438 -3.982123,7.27438 l 0.03415,-0.0137 h 5.696554 c 0.29,-1.47 1.033051,-2.60837 2.21305,-3.40837 1.179999,-0.8 2.667084,-1.20215 4.467082,-1.20215 1.769998,0 3.189002,0.43461 4.269001,1.30461 1.079999,0.87 1.625635,2.04082 1.625635,3.51082 0,1.48 -0.502689,2.65815 -1.502688,3.53815 -0.999999,0.89 -2.46878,1.33193 -4.398778,1.33193 h -4.473913 v 5.10914 h 4.965702 c 2.029998,0 3.646416,0.40996 4.856415,1.24996 1.209998,0.84 1.823717,2.11137 1.823717,3.81137 0,1.63999 -0.599567,2.94748 -1.789565,3.92748 -1.199999,0.97999 -2.830569,1.46853 -4.890567,1.46853 -2.099998,0 -3.781329,-0.45974 -5.061327,-1.37974 -1.279999,-0.92 -2.073319,-2.12279 -2.363319,-3.59279 h -5.79901 c 0.329999,3.18 1.68043,5.67295 4.050427,7.49295 2.369998,1.82 5.429572,2.73216 9.159568,2.73216 3.769996,0 6.819079,-0.98074 9.139076,-2.95073 2.329998,-1.96 3.490335,-4.49907 3.490335,-7.60907 0,-2.29 -0.657157,-4.1253 -1.967155,-5.5053 -1.309999,-1.37 -2.710207,-2.2602 -4.180206,-2.6502 1.309999,-0.46 2.438371,-1.33336 3.40837,-2.64336 0.969999,-1.31 1.448045,-2.88298 1.448045,-4.71298 0,-2.88 -1.077612,-5.21116 -3.23761,-7.00116 -2.159998,-1.79 -5.011665,-2.67752 -8.551662,-2.67752 z m 74.560657,0 c -3.47,0 -6.30702,0.94877 -8.49702,2.86877 -2.19,1.91 -3.45404,4.38831 -3.78404,7.43831 h 5.65557 c 0.33,-1.57 1.04841,-2.8094 2.15841,-3.7294 1.11,-0.92 2.54681,-1.37974 4.31681,-1.37974 1.74,0 3.1407,0.50269 4.2007,1.50269 1.07,0.99999 1.59831,2.24672 1.59831,3.75672 0,1.43999 -0.35969,2.72185 -1.09969,3.83185 -0.74,1.11 -1.93646,2.44213 -3.60646,3.98212 l -13.07338,12.02834 v 4.85642 h 24.41185 v -5.20477 h -16.40662 l 9.13907,-8.25112 c 2.16,-1.93 3.80106,-3.73285 4.91106,-5.40285 1.11,-1.67 1.66662,-3.64562 1.66662,-5.93562 0,-2.94 -1.05931,-5.4105 -3.16931,-7.39049 -2.10999,-1.98 -4.92188,-2.97123 -8.42188,-2.97123 z m 66.51444,0.58059 v 34.57549 h 5.84 v -15.0747 h 16.40662 v 15.0747 h 5.83999 v -34.57549 h -5.83999 v 14.2004 h -16.40662 v -14.2004 z m 47.0478,0 c -3.62999,0 -6.52827,1.03466 -8.68827,3.11466 -2.15999,2.08 -3.24444,4.77037 -3.24444,8.08036 0,2.29 0.57127,4.32272 1.72127,6.09272 1.13999,1.77 2.71297,3.10213 4.71297,3.98212 l -8.4492,13.30563 h 6.57767 0.007 l 7.71152,-12.22642 h 6.42741 v 12.22642 h 5.83999 v -34.57549 z m -159.298605,0.007 -12.820662,34.58232 h 6.14053 l 2.848277,-8.20332 h 13.660802 l 2.998548,8.20332 h 6.14053 L 95.701983,355.77901 h -6.092718 z m 79.574175,0 -1.12702,17.49265 c -0.23,3.4 -0.62166,6.00764 -1.18166,7.82764 -0.55,1.81 -1.41555,3.12797 -2.59555,3.94797 h -2.70484 V 396.939 h 5.60093 v -6.57767 h 23.76979 v 6.57767 h 5.60093 v -11.89173 l -0.007,0.0137 H 192.311 v -29.28192 z m 80.36649,5.15012 h 6.1337 v 12.13079 h -6.08589 c -2.08999,0 -3.73105,-0.55711 -4.91105,-1.68711 -1.18,-1.13 -1.76908,-2.60561 -1.76908,-4.40561 0,-1.8 0.58176,-3.25462 1.74176,-4.36462 1.15999,-1.11 2.79056,-1.67345 4.89056,-1.67345 z m -75.10026,0.10245 h 12.02834 v 24.01569 h -15.7714 c 0.92,-1.04999 1.57765,-2.42605 1.98765,-4.14605 0.41,-1.72 0.73309,-4.27322 0.96309,-7.64322 z m -81.835029,1.72127 5.061328,14.33701 H 87.601128 Z" /><g
     id="_2229639681360">
   
   
   <path
   style="color:#000000;clip-rule:nonzero;fill:#b2a2a0;fill-rule:nonzero;stroke-linecap:round;stroke-linejoin:round;stroke-miterlimit:22.9256;-inkscape-stroke:none;shape-rendering:auto"
   d="m 227.61914,141.75 c -10.44729,0 -21.19746,0.25 -31.35937,0.25 a 2.3302329,2.3302329 0 0 0 -2.32813,2.32812 L 194.08789,143.5 c -0.22266,0.57556 -0.19699,0.74128 -0.23437,1.04687 -0.0374,0.3056 -0.0652,0.64323 -0.0918,1.03711 -0.0532,0.78778 -0.0953,1.78602 -0.12891,2.94336 -0.0673,2.31469 -0.0996,5.25468 -0.0996,8.19727 0,2.94259 0.0323,5.88258 0.0996,8.19726 0.0336,1.15735 0.0757,2.15559 0.12891,2.94336 0.0266,0.39389 0.0544,0.73347 0.0918,1.03907 0.0374,0.30559 0.0117,0.47131 0.23437,1.04687 a 2.3302329,2.3302329 0 0 0 1.32422,1.33008 c 0.49073,0.19169 0.58383,0.15965 0.76172,0.18359 0.17788,0.0239 0.35145,0.0409 0.55078,0.0566 0.39866,0.0315 0.89027,0.056 1.48437,0.0801 1.18821,0.0482 2.77899,0.0877 4.6543,0.11914 3.75062,0.0628 8.62573,0.0937 13.50195,0.0937 4.87622,0 9.75134,-0.0309 13.50196,-0.0937 1.87531,-0.0314 3.46609,-0.0709 4.65429,-0.11914 0.59411,-0.0241 1.08572,-0.0486 1.48438,-0.0801 0.19933,-0.0157 0.37289,-0.0327 0.55078,-0.0566 0.17789,-0.0239 0.27099,0.008 0.76172,-0.18359 a 2.3302329,2.3302329 0 0 0 1.46289,-2.46875 l -1.00977,-7.83984 a 2.3302329,2.3302329 0 0 0 -0.29296,-0.86719 c -0.47556,-0.82431 -1.74237,-4.01488 -2.85157,-7.1543 -1.10919,-3.13942 -2.18071,-6.38217 -2.78711,-8.11914 a 2.3302329,2.3302329 0 0 0 -0.57031,-0.89648 c -0.98735,-0.96635 -1.48574,-1.27007 -2.44531,-1.84961 A 2.3302329,2.3302329 0 0 0 227.61914,141.75 Z m -0.74609,4.66602 c 0.22955,0.13063 0.55359,0.36422 0.78515,0.58593 0.60028,1.74234 1.53167,4.55117 2.57422,7.50196 1.03698,2.93501 1.9992,5.46964 2.94336,7.27148 l 0.66602,5.18164 c -1.08451,0.0393 -2.39846,0.0778 -4.05274,0.10547 -3.70874,0.0622 -8.56756,0.0918 -13.42383,0.0918 -4.85627,0 -9.71508,-0.0297 -13.42382,-0.0918 -1.85438,-0.0311 -3.42415,-0.0717 -4.54493,-0.11719 -0.005,-2e-4 -0.007,2.1e-4 -0.0117,0 -0.0342,-0.62414 -0.0683,-1.28198 -0.0937,-2.1582 -0.0652,-2.24406 -0.0977,-5.15509 -0.0977,-8.0625 0,-2.90741 0.0324,-5.81649 0.0977,-8.06055 0.0238,-0.82014 0.0563,-1.41925 0.0879,-2.02148 9.36172,-0.0286 19.05336,-0.21601 28.49414,-0.22656 z"
   id="path4" />
   
  </g></g>
  <rect
   class="fil1"
   x="0"
   width="307.75"
   height="419.66"
   id="rect5"
   y="0" />
 </g>
</svg>
