<?xml version="1.0" encoding="UTF-8" standalone="no"?>
<!-- Creator: CorelDRAW 2021.5 -->

<svg
   xml:space="preserve"
   width="16.128714mm"
   height="16.128714mm"
   version="1.1"
   style="clip-rule:evenodd;fill-rule:evenodd;image-rendering:optimizeQuality;shape-rendering:geometricPrecision;text-rendering:geometricPrecision"
   viewBox="0 0 452.33659 452.33549"
   id="svg2"
   sodipodi:docname="new.svg"
   inkscape:version="1.3.1 (9b9bdc1480, 2023-11-25, custom)"
   xmlns:inkscape="http://www.inkscape.org/namespaces/inkscape"
   xmlns:sodipodi="http://sodipodi.sourceforge.net/DTD/sodipodi-0.dtd"
   xmlns="http://www.w3.org/2000/svg"
   xmlns:svg="http://www.w3.org/2000/svg"><sodipodi:namedview
   id="namedview2"
   pagecolor="#ffffff"
   bordercolor="#000000"
   borderopacity="0.25"
   inkscape:showpageshadow="2"
   inkscape:pageopacity="0.0"
   inkscape:pagecheckerboard="0"
   inkscape:deskcolor="#d1d1d1"
   inkscape:document-units="mm"
   inkscape:zoom="7.15"
   inkscape:cx="3.9160839"
   inkscape:cy="22.937063"
   inkscape:window-width="1850"
   inkscape:window-height="1016"
   inkscape:window-x="0"
   inkscape:window-y="0"
   inkscape:window-maximized="1"
   inkscape:current-layer="Layer_x0020_1" />
 <defs
   id="defs1">
  <style
   type="text/css"
   id="style1">
   <![CDATA[
    .str0 {stroke:#B2A2A0;stroke-width:7.42;stroke-miterlimit:22.9256}
    .str1 {stroke:#B2A2A0;stroke-width:9.89;stroke-miterlimit:22.9256}
    .fil0 {fill:none}
    .fil1 {fill:#B2A2A0;fill-rule:nonzero;fill-opacity:0.800000}
   ]]>
  </style>
 </defs>
 <g
   id="Layer_x0020_1"
   inkscape:label="Layer 1"
   inkscape:groupmode="layer"
   transform="translate(-100.33171,-175.47279)">
  <metadata
   id="CorelCorpID_0Corel-Layer" />
  <path
   id="circle1"
   style="color:#000000;clip-rule:nonzero;fill:#b2a2a0;fill-rule:nonzero;stroke-miterlimit:22.9256;-inkscape-stroke:none;shape-rendering:auto"
   d="M 326.49301 175.47224 C 201.64459 175.47224 100.33171 276.78512 100.33171 401.63354 C 100.33171 526.48198 201.64458 627.80934 326.49301 627.80934 C 451.34145 627.80934 552.66881 526.48198 552.66881 401.63354 C 552.66881 276.78512 451.34144 175.47224 326.49301 175.47224 z M 326.49301 185.70421 C 445.80918 185.70421 542.43684 282.31738 542.43684 401.63354 C 542.43685 520.94972 445.80918 617.57737 326.49301 617.57737 C 207.17684 617.57737 110.56367 520.94972 110.56368 401.63354 C 110.56368 282.31738 207.17684 185.70421 326.49301 185.70421 z M 185.92663 365.01005 L 185.92663 453.50354 L 200.50646 453.50354 L 200.50646 387.87981 L 244.13001 453.50354 L 258.46346 453.50354 L 258.46346 365.01005 L 244.01407 365.01005 L 244.01407 428.60478 L 201.89777 365.01005 L 201.88328 365.01005 L 185.92663 365.01005 z M 346.71057 365.01005 L 373.47891 453.50354 L 387.43555 453.50354 L 406.0444 387.63343 L 424.52282 453.50354 L 438.72583 453.50354 L 465.49417 365.01005 L 450.16071 365.01005 L 431.43592 428.73522 L 413.07344 365.01005 L 399.1313 365.01005 L 380.78332 428.73522 L 362.04403 365.01005 L 346.71057 365.01005 z M 278.95639 365.02454 L 278.95639 453.50354 L 336.65252 453.50354 L 336.65252 440.05415 L 293.91303 440.05415 L 293.91303 414.79307 L 334.26119 414.79307 L 334.26119 401.7205 L 293.91303 401.7205 L 293.91303 378.45944 L 336.65252 378.45944 L 336.65252 365.02454 L 278.95639 365.02454 z " />
  
  
  <rect
   class="fil0"
   x="0"
   width="652.98999"
   height="890.44"
   id="rect2"
   y="0" />
 </g>
</svg>
