<?xml version="1.0" encoding="UTF-8" standalone="no"?>
<!-- Creator: CorelDRAW 2021.5 -->

<svg
   xml:space="preserve"
   width="11.220488mm"
   height="22.878675mm"
   version="1.1"
   style="clip-rule:evenodd;fill-rule:evenodd;image-rendering:optimizeQuality;shape-rendering:geometricPrecision;text-rendering:geometricPrecision"
   viewBox="0 0 201.60281 411.06675"
   id="svg4"
   sodipodi:docname="showrroms.svg"
   inkscape:version="1.3.1 (9b9bdc1480, 2023-11-25, custom)"
   xmlns:inkscape="http://www.inkscape.org/namespaces/inkscape"
   xmlns:sodipodi="http://sodipodi.sourceforge.net/DTD/sodipodi-0.dtd"
   xmlns="http://www.w3.org/2000/svg"
   xmlns:svg="http://www.w3.org/2000/svg"><sodipodi:namedview
   id="namedview4"
   pagecolor="#ffffff"
   bordercolor="#000000"
   borderopacity="0.25"
   inkscape:showpageshadow="2"
   inkscape:pageopacity="0.0"
   inkscape:pagecheckerboard="0"
   inkscape:deskcolor="#d1d1d1"
   inkscape:document-units="mm"
   inkscape:zoom="256"
   inkscape:cx="22.236328"
   inkscape:cy="0.15039062"
   inkscape:window-width="1452"
   inkscape:window-height="991"
   inkscape:window-x="26"
   inkscape:window-y="23"
   inkscape:window-maximized="0"
   inkscape:current-layer="Layer_x0020_1" />
 <defs
   id="defs1">
  <style
   type="text/css"
   id="style1">
   <![CDATA[
    .str1 {stroke:#B2A2A0;stroke-width:4.75;stroke-miterlimit:10}
    .str0 {stroke:#B2A2A0;stroke-width:4.75;stroke-linecap:round;stroke-miterlimit:10}
    .fil2 {fill:none}
    .fil1 {fill:none;fill-rule:nonzero}
    .fil0 {fill:#9F8A88;fill-rule:nonzero;fill-opacity:0.800000}
   ]]>
  </style>
 </defs>
 <g
   id="Layer_x0020_1"
   inkscape:label="Layer 1"
   inkscape:groupmode="layer"
   transform="translate(-108.33028,-120.40723)">
  <metadata
   id="CorelCorpID_0Corel-Layer" />
  <g
   id="_2229452925264">
   <path
   id="path1"
   class="fil0"
   d="m 209.18261,120.40562 c -39.93789,0 -72.47795,32.52108 -72.47795,72.45938 0,20.02344 16.22977,48.318 32.55287,72.60794 16.3231,24.28995 32.94522,44.24493 34.317,45.88599 l 0.009,0.009 v 0.009 c 1.38987,1.64124 3.44066,2.59049 5.58951,2.59049 2.14885,0 4.19036,-0.94925 5.58022,-2.59049 v -0.009 l 0.009,-0.009 c 1.37951,-1.6493 18.0019,-21.59726 34.32628,-45.88599 16.32438,-24.28871 32.55287,-52.5845 32.55287,-72.60794 0,-39.9383 -32.53116,-72.45938 -72.45938,-72.45938 z m 0,4.74459 c 37.35162,0 67.7148,30.35325 67.7148,67.71479 0,17.32649 -15.58203,45.91306 -31.74509,69.96175 -16.15687,24.03948 -32.68755,43.8734 -34.02916,45.47745 -0.49012,0.57876 -1.19868,0.90992 -1.94983,0.90992 -0.75115,0 -1.469,-0.33116 -1.95912,-0.90992 -1.3403,-1.60346 -17.85549,-21.4375 -34.0106,-45.47745 -16.16183,-24.04996 -31.74508,-52.63526 -31.74508,-69.96175 0,-37.36154 30.36212,-67.71479 67.72408,-67.71479 z m 0.91921,30.77945 c -17.32816,0 -31.46654,14.12911 -31.46654,31.45725 0,17.31896 14.13739,31.46654 31.46654,31.46654 17.32815,0 31.46653,-14.13839 31.46653,-31.46654 0,-17.32814 -14.13838,-31.45725 -31.46653,-31.45725 z m 0,4.74459 c 14.75178,0 26.71266,11.96089 26.71266,26.71266 0,14.75179 -11.96088,26.72195 -26.71266,26.72195 -14.7508,0 -26.71267,-11.98096 -26.71267,-26.72195 0,-14.75177 11.96088,-26.71266 26.71267,-26.71266 z m -33.88061,123.93488 c -12.15216,2.39992 -21.81331,5.9227 -28.62536,10.48265 -6.81203,4.55995 -10.89119,10.41774 -10.89119,17.01923 0,5.37733 2.64059,10.13701 6.83369,13.95521 4.19309,3.81819 9.94295,6.85209 16.72211,9.2849 13.55834,4.86561 31.28268,7.27936 48.92215,7.27936 17.63453,0 35.3465,-2.41374 48.90358,-7.27936 6.77855,-2.43282 12.53848,-5.46671 16.7314,-9.2849 4.1929,-3.81819 6.8244,-8.57788 6.8244,-13.95521 0,-6.53622 -4.01761,-12.34873 -10.72406,-16.88924 -6.70644,-4.5405 -16.21226,-8.06662 -28.17039,-10.48265 a 2.375,2.375 0 0 0 -2.79476,1.85698 2.375,2.375 0 0 0 1.85698,2.80404 c 11.55181,2.33394 20.54165,5.74717 26.45269,9.74914 5.91102,4.00199 8.63496,8.33798 8.63496,12.96173 0,3.86766 -1.77636,7.25216 -5.28311,10.44551 -3.50676,3.19336 -8.74421,6.03513 -15.13439,8.32856 -12.78036,4.58687 -30.10191,7.00082 -47.2973,7.00082 -17.20046,0 -34.53425,-2.41394 -47.31586,-7.00082 -6.39081,-2.29343 -11.6275,-5.1352 -15.13439,-8.32856 -3.5069,-3.19334 -5.27383,-6.57785 -5.27383,-10.44551 0,-4.67848 2.77059,-9.04811 8.78352,-13.07314 6.01293,-4.02504 15.15058,-7.44765 26.89836,-9.76772 a 2.375,2.375 0 0 0 1.86627,-2.78547 2.375,2.375 0 0 0 -2.78547,-1.87555 z m 44.96678,109.56185 c -6.58999,0 -11.91075,2.25798 -15.96075,6.77798 -4.04999,4.51999 -6.06304,10.3599 -6.06304,17.52989 0,7.17 2.01305,13.0099 6.06304,17.5299 4.05,4.51999 9.37076,6.77798 15.96075,6.77798 6.58999,0 11.91075,-2.25799 15.96075,-6.77798 4.05999,-4.52 6.08161,-10.3599 6.08161,-17.5299 0,-7.16999 -2.03162,-13.0099 -6.08161,-17.52989 -4.05,-4.52 -9.37076,-6.77798 -15.96075,-6.77798 z m -95.42094,0.009 c -4.77,0 -8.75682,1.34108 -11.98681,4.01108 -3.23,2.67 -4.83744,6.16266 -4.83744,10.48266 0,3.42999 1.05616,6.21498 3.16616,8.37498 2.10999,2.16 5.14849,3.53321 9.10848,4.11321 l 8.15215,1.32774 c 4.35999,0.71 6.53657,2.7816 6.53657,6.2116 0,2.18 -0.81978,3.90169 -2.46978,5.17169 -1.64,1.27 -3.82658,1.89412 -6.53657,1.89412 -5.65,0 -9.15266,-2.20085 -10.48266,-6.61085 h -8.07787 l -0.009,0.0279 c 0.67,4.31999 2.66734,7.66626 6.00733,10.04626 3.34,2.38 7.48321,3.5654 12.4232,3.5654 5.21,0 9.37605,-1.3068 12.51605,-3.9368 3.14,-2.62999 4.71673,-6.21192 4.71673,-10.75191 0,-7.3 -4.23247,-11.67172 -12.69246,-13.09172 l -8.14286,-1.26274 c -4.09,-0.67 -6.13732,-2.56237 -6.13732,-5.68236 0,-2.13 0.84478,-3.81171 2.53478,-5.0417 1.69,-1.23 3.7616,-1.83842 6.2116,-1.83842 5.16999,0 8.35416,2.07161 9.55416,6.2116 h 8.01287 c -0.67,-4.22999 -2.60449,-7.49629 -5.78449,-9.78628 -3.18,-2.29 -7.11255,-3.43542 -11.78254,-3.43542 z m 26.63838,0.78922 v 47.00946 h 7.95716 V 421.4776 h 22.29306 v 20.50106 h 7.95716 V 394.9692 h -7.95716 v 19.30331 H 160.36259 V 394.9692 Z m 94.43675,0.009 14.21518,47.00947 h 7.40936 l 9.87913,-34.98552 9.82343,34.98552 h 7.53934 l 14.22447,-47.00947 h -8.13357 l -9.95342,33.85276 -9.74915,-33.85276 h -7.40935 l -9.74915,33.85276 -9.94413,-33.85276 z m -25.65419,6.47158 c 4.27,0 7.66554,1.57531 10.18554,4.7353 2.51,3.16 3.76967,7.26322 3.76967,12.29321 0,5.03 -1.24967,9.13322 -3.76967,12.29321 -2.51,3.16 -5.91554,4.7353 -10.18554,4.7353 -4.26999,0 -7.6584,-1.56744 -10.1484,-4.70744 -2.48999,-3.14 -3.74181,-7.25107 -3.74181,-12.32107 0,-5.07999 1.25182,-9.18107 3.74181,-12.32106 2.49,-3.14 5.87841,-4.70745 10.1484,-4.70745 z m -46.69377,81.41003 c -6.59,0 -11.91076,2.25798 -15.96075,6.77798 -4.05,4.51999 -6.07233,10.3599 -6.07233,17.52989 0,7.17 2.02233,13.0099 6.07233,17.5299 4.04999,4.51999 9.37075,6.77798 15.96075,6.77798 6.58999,0 11.90146,-2.25799 15.95146,-6.77798 4.05999,-4.52 6.08161,-10.3599 6.08161,-17.5299 0,-7.16999 -2.03162,-13.0099 -6.08161,-17.52989 -4.05,-4.52 -9.36147,-6.77798 -15.95146,-6.77798 z m 50.40773,0 c -6.58999,0 -11.91075,2.25798 -15.96075,6.77798 -4.04999,4.51999 -6.07232,10.3599 -6.07232,17.52989 0,7.17 2.02233,13.0099 6.07232,17.5299 4.05,4.51999 9.37076,6.77798 15.96075,6.77798 6.59,0 11.91075,-2.25799 15.96075,-6.77798 4.06,-4.52 6.08161,-10.3599 6.08161,-17.5299 0,-7.16999 -2.03161,-13.0099 -6.08161,-17.52989 -4.05,-4.52 -9.37075,-6.77798 -15.96075,-6.77798 z m -113.04369,0.78921 v 47.00947 h 7.94788 v -16.83353 h 8.41212 l 10.67764,16.83353 h 9.08063 l -11.61541,-18.16127 c 2.85,-1.2 5.07585,-3.04381 6.67585,-5.5338 1.59999,-2.49 2.40479,-5.25214 2.40479,-8.28214 0,-4.27999 -1.41321,-7.85406 -4.2432,-10.72406 -2.83,-2.87 -6.77755,-4.3082 -11.84754,-4.3082 z m 143.69316,0.0186 v 47.00947 h 7.60433 v -33.99203 l 13.96449,33.79704 h 6.40659 l 13.96449,-33.79704 v 33.99203 h 7.53934 v -47.00947 h -9.68415 l -14.95798,36.38754 -15.02297,-36.38754 z m -81.0572,6.47158 c 4.26999,0 7.65625,1.58459 10.17625,4.74459 2.51,3.15999 3.76967,7.25393 3.76967,12.28392 0,5.03 -1.24967,9.13322 -3.76967,12.29321 -2.51,3.16 -5.90626,4.7353 -10.17625,4.7353 -4.27,0 -7.66769,-1.56744 -10.15769,-4.70744 -2.48999,-3.14 -3.73253,-7.25107 -3.73253,-12.32107 0,-5.07999 1.24254,-9.18107 3.73253,-12.32106 2.49,-3.14 5.88769,-4.70745 10.15769,-4.70745 z m 50.40773,0 c 4.27,0 7.65626,1.58459 10.17626,4.74459 2.50999,3.15999 3.76967,7.25393 3.76967,12.28392 0,5.03 -1.24968,9.13322 -3.76967,12.29321 -2.51,3.16 -5.90626,4.7353 -10.17626,4.7353 -4.26999,0 -7.6584,-1.56744 -10.1484,-4.70744 -2.48999,-3.14 -3.74181,-7.25107 -3.74181,-12.32107 0,-5.07999 1.25182,-9.18107 3.74181,-12.32106 2.49,-3.14 5.87841,-4.70745 10.1484,-4.70745 z m -105.1051,0.52924 h 8.75567 c 2.88515,0.002 5.07612,0.74936 6.56442,2.23766 1.49,1.49 2.24695,3.44021 2.24695,5.84021 0,2.31999 -0.76266,4.25235 -2.30266,5.81235 -1.52999,1.55999 -3.70871,2.33979 -6.50871,2.33979 h -8.75567 z" />
   <g
   id="g4">
    
    
    
   </g>
  </g>
  <rect
   class="fil2"
   x="0"
   width="418.34"
   height="570.46002"
   id="rect4"
   y="0" />
 </g>
</svg>
