<?xml version="1.0" encoding="UTF-8"?>
<!DOCTYPE svg PUBLIC "-//W3C//DTD SVG 1.1//EN" "http://www.w3.org/Graphics/SVG/1.1/DTD/svg11.dtd">
<!-- Creator: CorelDRAW 2021.5 -->
<svg xmlns="http://www.w3.org/2000/svg" xml:space="preserve" width="23.2833mm" height="31.75mm" version="1.1" style="shape-rendering:geometricPrecision; text-rendering:geometricPrecision; image-rendering:optimizeQuality; fill-rule:evenodd; clip-rule:evenodd" viewBox="0 0 307.75 419.66" xmlns:xlink="http://www.w3.org/1999/xlink" xmlns:xodm="http://www.corel.com/coreldraw/odm/2003">
 <defs>
  <style type="text/css">
   <![CDATA[
    .str0 {stroke:#B2A2A0;stroke-width:4.66;stroke-linecap:round;stroke-linejoin:round;stroke-miterlimit:22.9256}
    .fil1 {fill:none}
    .fil0 {fill:#9F8A88;fill-rule:nonzero;fill-opacity:0.800000}
   ]]>
  </style>
 </defs>
 <g id="Layer_x0020_1">
  <metadata id="CorelCorpID_0Corel-Layer"/>
  <path class="fil0" d="M51.05 319.84l0 11.89 -5.6 0 0 -6.58 -23.77 0 0 6.58 -5.6 0 0 -11.89 2.7 0c1.18,-0.82 2.05,-2.14 2.6,-3.95 0.56,-1.82 0.95,-4.43 1.18,-7.83l1.13 -17.49 23.13 0 0 29.28 4.22 0zm-22.89 -11.79c-0.23,3.37 -0.55,5.92 -0.96,7.64 -0.41,1.72 -1.07,3.1 -1.99,4.15l15.77 0 0 -24.02 -12.03 0 -0.79 12.23zm30.99 -13.09c2.98,-3.32 6.89,-4.99 11.74,-4.99 4.85,0 8.76,1.66 11.74,4.99 2.98,3.32 4.47,7.62 4.47,12.89 0,5.27 -1.49,9.57 -4.47,12.89 -2.98,3.32 -6.89,4.99 -11.74,4.99 -4.85,0 -8.76,-1.66 -11.74,-4.99 -2.98,-3.32 -4.47,-7.62 -4.47,-12.89 0,-5.27 1.49,-9.57 4.47,-12.89zm4.27 21.96c1.83,2.31 4.32,3.46 7.47,3.46 3.14,0 5.64,-1.16 7.49,-3.49 1.85,-2.32 2.78,-5.34 2.78,-9.04 0,-3.7 -0.93,-6.71 -2.78,-9.04 -1.85,-2.32 -4.35,-3.49 -7.49,-3.49 -3.14,0 -5.63,1.15 -7.47,3.46 -1.83,2.31 -2.75,5.33 -2.75,9.06 0,3.73 0.92,6.75 2.75,9.06zm52.95 -3.12l5.89 0c-0.16,1.41 -0.57,2.79 -1.23,4.15 -0.65,1.36 -1.56,2.63 -2.7,3.81 -1.15,1.18 -2.65,2.14 -4.52,2.87 -1.87,0.74 -3.93,1.1 -6.19,1.1 -4.65,0 -8.46,-1.65 -11.42,-4.94 -2.96,-3.29 -4.45,-7.61 -4.45,-12.94 0,-5.27 1.47,-9.57 4.42,-12.89 2.95,-3.32 6.76,-4.99 11.45,-4.99 4.13,0 7.45,1.12 9.97,3.37 2.52,2.24 4.04,5.08 4.57,8.52l-5.84 0c-0.52,-1.93 -1.51,-3.5 -2.95,-4.71 -1.44,-1.21 -3.36,-1.82 -5.75,-1.82 -2.98,0 -5.37,1.15 -7.17,3.46 -1.8,2.31 -2.7,5.33 -2.7,9.06 0,3.7 0.9,6.71 2.7,9.04 1.8,2.32 4.19,3.49 7.17,3.49 2.49,0 4.49,-0.67 5.99,-2.01 1.51,-1.34 2.42,-2.87 2.75,-4.57zm8.6 -17.98l0 -5.26 27.6 0 0 5.26 -10.85 0 0 29.32 -5.85 0 0 -29.32 -10.9 0zm39.1 -5.26l6.09 0 12.87 34.58 -6.14 0 -3 -8.2 -13.66 0 -2.85 8.2 -6.14 0 12.82 -34.58zm3 6.97l-5.01 14.34 10.07 0 -5.06 -14.34zm20.73 27.6l0 -34.58 13.36 0c3.37,0 5.99,0.84 7.86,2.53 1.87,1.69 2.8,3.84 2.8,6.46 0,1.9 -0.44,3.49 -1.33,4.79 -0.88,1.29 -1.95,2.2 -3.19,2.73 1.54,0.46 2.9,1.38 4.08,2.75 1.18,1.38 1.77,3.21 1.77,5.5 0,2.91 -1.05,5.28 -3.14,7.1 -2.09,1.82 -4.89,2.73 -8.4,2.73l-13.8 0zm13.36 -15.33l-7.52 0 0 10.32 7.32 0c1.9,0 3.41,-0.45 4.54,-1.35 1.13,-0.9 1.69,-2.17 1.69,-3.81 0,-1.6 -0.55,-2.86 -1.65,-3.78 -1.1,-0.92 -2.56,-1.38 -4.4,-1.38zm-0.84 -14.24l-6.68 0 0 9.43 6.93 0c1.74,0 3.06,-0.43 3.98,-1.3 0.92,-0.87 1.38,-2.01 1.38,-3.41 0,-1.47 -0.49,-2.63 -1.47,-3.46 -0.98,-0.84 -2.36,-1.25 -4.13,-1.25zm47.25 -5.01l0 34.58 -5.75 0 0 -25.3 -16.8 25.3 -5.8 0 0 -34.58 5.8 0 0 25.35 16.8 -25.35 5.75 0zm8.01 0l7.22 0 11.05 26.77 11 -26.77 7.12 0 0 34.58 -5.55 0 0 -25 -10.27 24.85 -4.72 0 -10.26 -24.85 0 25 -5.6 0 0 -34.58zm-207.23 74.51c0.29,-3.11 1.62,-5.53 3.98,-7.27 2.36,-1.74 5.17,-2.6 8.45,-2.6 3.54,0 6.39,0.89 8.55,2.68 2.16,1.79 3.24,4.12 3.24,7 0,1.83 -0.48,3.4 -1.45,4.71 -0.97,1.31 -2.1,2.19 -3.41,2.65 1.47,0.39 2.87,1.28 4.18,2.65 1.31,1.38 1.97,3.21 1.97,5.5 0,3.11 -1.16,5.65 -3.49,7.61 -2.32,1.97 -5.37,2.95 -9.14,2.95 -3.73,0 -6.79,-0.91 -9.16,-2.73 -2.37,-1.82 -3.72,-4.31 -4.05,-7.49l5.8 0c0.29,1.47 1.08,2.67 2.36,3.59 1.28,0.92 2.96,1.38 5.06,1.38 2.06,0 3.69,-0.49 4.89,-1.47 1.19,-0.98 1.79,-2.29 1.79,-3.93 0,-1.7 -0.61,-2.97 -1.82,-3.81 -1.21,-0.84 -2.83,-1.25 -4.86,-1.25l-4.96 0 0 -5.11 4.47 0c1.93,0 3.4,-0.44 4.4,-1.33 1,-0.88 1.5,-2.06 1.5,-3.54 0,-1.47 -0.54,-2.64 -1.62,-3.51 -1.08,-0.87 -2.5,-1.3 -4.27,-1.3 -1.8,0 -3.29,0.4 -4.47,1.2 -1.18,0.8 -1.92,1.94 -2.21,3.41l-5.7 0zm41.26 -9.28l6.09 0 12.87 34.58 -6.14 0 -3 -8.2 -13.66 0 -2.85 8.2 -6.14 0 12.82 -34.58zm3 6.97l-5.01 14.34 10.07 0 -5.06 -14.34zm48.38 2.9c0,-1.51 -0.53,-2.76 -1.6,-3.76 -1.06,-1 -2.46,-1.5 -4.2,-1.5 -1.77,0 -3.21,0.46 -4.32,1.38 -1.11,0.92 -1.83,2.16 -2.16,3.73l-5.65 0c0.33,-3.05 1.59,-5.53 3.78,-7.44 2.19,-1.92 5.03,-2.87 8.5,-2.87 3.5,0 6.31,0.99 8.42,2.97 2.11,1.98 3.17,4.45 3.17,7.39 0,2.29 -0.56,4.27 -1.67,5.94 -1.11,1.67 -2.75,3.47 -4.91,5.4l-9.14 8.25 16.41 0 0 5.21 -24.41 0 0 -4.86 13.07 -12.03c1.67,-1.54 2.87,-2.87 3.61,-3.98 0.74,-1.11 1.1,-2.39 1.1,-3.83zm55.55 19.4l0 11.89 -5.6 0 0 -6.58 -23.77 0 0 6.58 -5.6 0 0 -11.89 2.7 0c1.18,-0.82 2.05,-2.14 2.6,-3.95 0.56,-1.82 0.95,-4.43 1.18,-7.83l1.13 -17.49 23.13 0 0 29.28 4.22 0zm-22.89 -11.79c-0.23,3.37 -0.55,5.92 -0.96,7.64 -0.41,1.72 -1.07,3.1 -1.99,4.15l15.77 0 0 -24.02 -12.03 0 -0.79 12.23zm34.04 17.09l-5.84 0 0 -34.58 5.84 0 0 14.2 16.41 0 0 -14.2 5.84 0 0 34.58 -5.84 0 0 -15.08 -16.41 0 0 15.08zm33.84 0l-6.58 0 8.45 -13.31c-2,-0.88 -3.57,-2.21 -4.71,-3.98 -1.15,-1.77 -1.72,-3.8 -1.72,-6.09 0,-3.31 1.08,-6 3.24,-8.08 2.16,-2.08 5.06,-3.12 8.69,-3.12l12.62 0 0 34.58 -5.84 0 0 -12.23 -6.43 0 -7.71 12.23zm3.12 -27.75c-1.16,1.11 -1.74,2.57 -1.74,4.37 0,1.8 0.59,3.27 1.77,4.4 1.18,1.13 2.82,1.69 4.91,1.69l6.09 0 0 -12.13 -6.14 0c-2.1,0 -3.73,0.56 -4.89,1.67z"/>
  <g id="_2229639681360">
   <path class="fil1 str0" d="M100.17 123.36c-1.14,1.26 -1.26,2.9 -1.26,4.55 0,7.2 -0.39,47.82 0.25,51.57 0.43,2.5 1.42,2.02 3.03,2.28 1.05,0.34 1.13,0.25 2.27,0.25 7.22,0 51.94,0.37 55.63,-0.25 2.19,-0.37 2.28,-3.03 2.28,-4.8 0,-6.94 0.41,-48.52 -0.25,-51.82 -0.18,-0.53 -0.27,-0.77 -0.5,-1.26 -0.93,-0.54 -2.9,-1.01 -4.05,-1.01l-54.37 0c-1.25,0 -1.82,0.41 -3.03,0.5z"/>
   <path class="fil1 str0" d="M45.8 152.93c-1.22,0.84 -1.52,1.75 -1.52,3.29 0,4.2 -0.35,20.78 0.25,23.76 0.41,2.06 1.79,1.61 2.78,1.77 1.05,0.34 1.13,0.25 2.28,0.25 4.94,0 31.25,0.32 34.64,-0.25 2.19,-0.37 2.28,-3.03 2.28,-4.8 0,-2.59 0.26,-21.18 -0.25,-22.75 -0.84,-1.22 -1.99,-1.52 -3.54,-1.52l-35.4 0c-0.84,0.27 -0.56,0.25 -1.52,0.25z"/>
   <path class="fil1 str0" d="M196.26 144.34c-0.53,1.37 -0.53,23.4 0,24.77 1.28,0.5 38.93,0.5 40.21,0l-1.01 -7.84c-1.5,-2.6 -4.64,-12.29 -5.82,-15.67 -0.94,-0.92 -1.01,-0.91 -2.02,-1.52 -10.41,0 -21.16,0.25 -31.36,0.25z"/>
   <path class="fil1 str0" d="M199.54 223.71c0.73,-0.61 0.36,-0.1 0.76,-1.26 0.07,-3.29 2.28,-6.49 4.05,-9.1 1.75,-2.13 3.47,-2.85 5.31,-4.3m-149.95 14.66c1.09,-0.91 0.56,-1.07 0.76,-2.27 0.92,-2.66 1.82,-4.18 2.78,-6.57l3.54 -3.79c0.98,-0.64 2.13,-1.31 3.03,-2.02m140.34 -0.25l-0.5 0.25m-139.33 -0.25l-0.51 0.25m140.84 -0.5l-0.51 0.25m-139.33 -0.25l-0.51 0.25m140.84 -0.51l-0.51 0.25m-139.33 -0.25l-0.5 0.25m141.1 -0.5c-0.52,0.33 0.09,0.25 -0.76,0.25m-139.07 -0.25c-0.52,0.33 0.09,0.25 -0.76,0.25m141.6 -0.5c-0.58,0.28 -0.11,0.25 -1.01,0.25m-139.07 -0.25c-0.52,0.33 0.09,0.25 -0.76,0.25m141.35 -0.51l-0.51 0.25m-139.33 -0.25c-0.52,0.33 0.09,0.25 -0.76,0.25m141.86 -0.5c-0.77,0.3 -0.25,0.25 -1.26,0.25m-138.57 -0.25c-0.76,0.3 -0.25,0.25 -1.26,0.25m142.11 -0.51c-0.58,0.28 -0.11,0.25 -1.01,0.25m-138.82 -0.25c-0.58,0.28 -0.11,0.25 -1.01,0.25m143.12 -0.51c-1,0.39 -1.16,0.25 -2.27,0.25m-137.56 -0.25c-1,0.39 -1.16,0.25 -2.27,0.25m162.59 16.68c-1.32,-1.85 -1.02,-7.55 -6.57,-12.13 -1.33,-1.1 -4.15,-3.02 -5.82,-3.54 -1.12,-0.09 -0.54,0.06 -1.52,-0.51l-6.57 -0.76m-119.6 16.94c-0.96,-1.66 -0.47,-2.46 -0.76,-3.54 -0.14,-0.52 -3.21,-6.61 -5.31,-8.34 -1.57,-1.29 -4.06,-3.17 -6.07,-3.79 -1.12,-0.09 -0.54,0.06 -1.52,-0.51l-6.57 -0.76m100.89 16.94l0 -29.32m2.78 -67.5c-1.02,0.39 -1.38,0.25 -2.53,0.25 -0.78,2.01 -0.25,59.75 -0.25,67.24l-139.07 0c-1.46,0.23 -2.41,0.29 -3.54,0.76 -0.43,1.05 -0.43,1.76 -0.76,2.78l0 22.5c0.2,1.25 0.38,2.05 1.27,3.03 0.99,0.02 0.62,-0.04 1.52,0.25l21.24 0c0.37,1.15 0.4,6.1 1.52,9.61 0.98,1.63 1.69,3.14 2.78,4.8l4.55 4.3c1.19,0.48 3.21,1.37 4.3,2.02 1.11,0.02 1.31,0.17 2.28,0.5l6.07 0.25c0.94,-0.3 0.72,-0.25 1.77,-0.25 0.51,-0.17 1.01,-0.33 1.52,-0.5l1.01 0c1.03,-0.62 2.67,-1.32 3.79,-1.77 3.31,-2.09 7.65,-7.24 8.34,-11.12l0.76 -7.84 80.66 0 20.48 0 0.76 6.57c0.96,2.97 1.72,4.17 2.78,6.82l3.79 4.05c2.35,1.59 3.7,2.02 5.82,3.29 1.11,0.02 1.31,0.17 2.28,0.5l6.07 0.25c0.94,-0.3 0.72,-0.25 1.77,-0.25 0.51,-0.17 1.01,-0.33 1.52,-0.5l1.01 0c1.64,-0.45 5.99,-3.21 7.33,-4.55l3.29 -4.55c0.54,-1.16 0.85,-2.17 1.52,-3.29l0 -1.01c0.17,-0.51 0.33,-1.01 0.5,-1.52l0.25 -4.55c0.24,-0.74 0.19,-0.46 0.25,-1.26l17.95 0c2.29,-0.36 2.45,-0.68 2.78,-2.78 0.2,-1.24 0.15,-39.91 -0.25,-42.47l-0.51 -3.79 -17.19 -43.73c-1.51,-3.01 -1.69,-3.14 -5.82,-3.79l-2.28 0c-2.99,-0.97 -44.48,-0.25 -51.33,-0.25"/>
  </g>
  <rect class="fil1" x="0" width="307.75" height="419.66"/>
 </g>
</svg>