<?xml version="1.0" encoding="UTF-8"?>
<!DOCTYPE svg PUBLIC "-//W3C//DTD SVG 1.1//EN" "http://www.w3.org/Graphics/SVG/1.1/DTD/svg11.dtd">
<!-- Creator: CorelDRAW 2021.5 -->
<svg xmlns="http://www.w3.org/2000/svg" xml:space="preserve" width="23.2833mm" height="31.75mm" version="1.1" style="shape-rendering:geometricPrecision; text-rendering:geometricPrecision; image-rendering:optimizeQuality; fill-rule:evenodd; clip-rule:evenodd" viewBox="0 0 652.99 890.44" xmlns:xlink="http://www.w3.org/1999/xlink" xmlns:xodm="http://www.corel.com/coreldraw/odm/2003">
 <defs>
  <style type="text/css">
   <![CDATA[
    .str0 {stroke:#B2A2A0;stroke-width:7.42;stroke-miterlimit:22.9256}
    .str1 {stroke:#B2A2A0;stroke-width:9.89;stroke-miterlimit:22.9256}
    .fil0 {fill:none}
    .fil1 {fill:#B2A2A0;fill-rule:nonzero;fill-opacity:0.800000}
   ]]>
  </style>
 </defs>
 <g id="Layer_x0020_1">
  <metadata id="CorelCorpID_0Corel-Layer"/>
  <circle class="fil0 str0" cx="326.5" cy="401.64" r="221.05"/>
  <path class="fil1" d="M201.9 365.01l42.11 63.6 0 -63.6 14.45 0 0 88.49 -14.33 0 -43.62 -65.62 0 65.62 -14.58 0 0 -88.49 15.96 0zm134.75 13.45l-42.74 0 0 23.26 40.35 0 0 13.07 -40.35 0 0 25.27 42.74 0 0 13.45 -57.69 0 0 -88.49 57.69 0 0 13.45zm128.84 -13.45l-26.77 88.49 -14.2 0 -18.48 -65.87 -18.6 65.87 -13.96 0 -26.77 -88.49 15.34 0 18.73 63.73 18.35 -63.73 13.95 0 18.35 63.73 18.73 -63.73 15.34 0z"/>
  <circle class="fil0 str1" cx="326.49" cy="393.35" r="221.05"/>
  <rect class="fil0" x="-0" width="652.99" height="890.44"/>
 </g>
</svg>