<?xml version="1.0" encoding="UTF-8"?>
<!DOCTYPE svg PUBLIC "-//W3C//DTD SVG 1.1//EN" "http://www.w3.org/Graphics/SVG/1.1/DTD/svg11.dtd">
<!-- Creator: CorelDRAW 2021.5 -->
<svg xmlns="http://www.w3.org/2000/svg" xml:space="preserve" width="23.2833mm" height="31.75mm" version="1.1" style="shape-rendering:geometricPrecision; text-rendering:geometricPrecision; image-rendering:optimizeQuality; fill-rule:evenodd; clip-rule:evenodd" viewBox="0 0 418.34 570.46" xmlns:xlink="http://www.w3.org/1999/xlink" xmlns:xodm="http://www.corel.com/coreldraw/odm/2003">
 <defs>
  <style type="text/css">
   <![CDATA[
    .str1 {stroke:#B2A2A0;stroke-width:4.75;stroke-miterlimit:10}
    .str0 {stroke:#B2A2A0;stroke-width:4.75;stroke-linecap:round;stroke-miterlimit:10}
    .fil2 {fill:none}
    .fil1 {fill:none;fill-rule:nonzero}
    .fil0 {fill:#9F8A88;fill-rule:nonzero;fill-opacity:0.800000}
   ]]>
  </style>
 </defs>
 <g id="Layer_x0020_1">
  <metadata id="CorelCorpID_0Corel-Layer"/>
  <g id="_2229452925264">
   <path class="fil0" d="M108.34 429.16l8.08 0c1.33,4.41 4.83,6.61 10.48,6.61 2.71,0 4.9,-0.63 6.54,-1.9 1.65,-1.27 2.47,-2.99 2.47,-5.17 0,-3.43 -2.18,-5.5 -6.54,-6.21l-8.15 -1.33c-3.96,-0.58 -7,-1.95 -9.11,-4.11 -2.11,-2.16 -3.17,-4.95 -3.17,-8.38 0,-4.32 1.61,-7.81 4.84,-10.48 3.23,-2.67 7.22,-4.01 11.99,-4.01 4.67,0 8.6,1.15 11.78,3.44 3.18,2.29 5.11,5.55 5.78,9.78l-8.01 0c-1.2,-4.14 -4.38,-6.21 -9.55,-6.21 -2.45,0 -4.52,0.61 -6.21,1.84 -1.69,1.23 -2.54,2.91 -2.54,5.04 0,3.12 2.05,5.01 6.14,5.68l8.14 1.27c8.46,1.42 12.69,5.79 12.69,13.09 0,4.54 -1.57,8.12 -4.71,10.75 -3.14,2.63 -7.31,3.94 -12.52,3.94 -4.94,0 -9.08,-1.19 -12.42,-3.57 -3.34,-2.38 -5.34,-5.73 -6.01,-10.05zm52.02 12.82l-7.95 0 0 -47.01 7.95 0 0 19.3 22.3 0 0 -19.3 7.95 0 0 47.01 -7.95 0 0 -20.5 -22.3 0 0 20.5zm44.87 -41.03c4.05,-4.52 9.37,-6.78 15.96,-6.78 6.59,0 11.91,2.26 15.96,6.78 4.05,4.52 6.08,10.36 6.08,17.53 0,7.17 -2.02,13.01 -6.08,17.53 -4.05,4.52 -9.37,6.78 -15.96,6.78 -6.59,0 -11.91,-2.26 -15.96,-6.78 -4.05,-4.52 -6.07,-10.36 -6.07,-17.53 0,-7.17 2.02,-13.01 6.07,-17.53zm5.81 29.85c2.49,3.14 5.88,4.71 10.15,4.71 4.27,0 7.67,-1.58 10.18,-4.74 2.52,-3.16 3.77,-7.26 3.77,-12.29 0,-5.03 -1.26,-9.13 -3.77,-12.29 -2.52,-3.16 -5.91,-4.74 -10.18,-4.74 -4.27,0 -7.66,1.57 -10.15,4.71 -2.49,3.14 -3.74,7.24 -3.74,12.32 0,5.07 1.25,9.18 3.74,12.32zm98.89 -35.82l-14.22 47.01 -7.54 0 -9.82 -34.99 -9.88 34.99 -7.41 0 -14.22 -47.01 8.15 0 9.95 33.85 9.75 -33.85 7.41 0 9.75 33.85 9.95 -33.85 8.15 0zm-164.49 103.7c0,3.03 -0.8,5.79 -2.4,8.28 -1.6,2.49 -3.83,4.34 -6.68,5.54l11.62 18.16 -9.08 0 -10.68 -16.83 -8.41 0 0 16.83 -7.95 0 0 -47.01 17.49 0c5.07,0 9.02,1.44 11.85,4.31 2.83,2.87 4.24,6.44 4.24,10.72zm-16.89 -8.01l-8.75 0 0 16.23 8.75 0c2.8,0 4.98,-0.78 6.51,-2.34 1.54,-1.56 2.3,-3.49 2.3,-5.81 0,-2.4 -0.75,-4.35 -2.24,-5.84 -1.49,-1.49 -3.69,-2.24 -6.58,-2.24zm29.98 -1.03c4.05,-4.52 9.37,-6.78 15.96,-6.78 6.59,0 11.91,2.26 15.96,6.78 4.05,4.52 6.08,10.36 6.08,17.53 0,7.17 -2.02,13.01 -6.08,17.53 -4.05,4.52 -9.37,6.78 -15.96,6.78 -6.59,0 -11.91,-2.26 -15.96,-6.78 -4.05,-4.52 -6.07,-10.36 -6.07,-17.53 0,-7.17 2.02,-13.01 6.07,-17.53zm5.81 29.85c2.49,3.14 5.88,4.71 10.15,4.71 4.27,0 7.67,-1.58 10.18,-4.74 2.52,-3.16 3.77,-7.26 3.77,-12.29 0,-5.03 -1.26,-9.13 -3.77,-12.29 -2.52,-3.16 -5.91,-4.74 -10.18,-4.74 -4.27,0 -7.66,1.57 -10.15,4.71 -2.49,3.14 -3.74,7.24 -3.74,12.32 0,5.07 1.25,9.18 3.74,12.32zm44.6 -29.85c4.05,-4.52 9.37,-6.78 15.96,-6.78 6.59,0 11.91,2.26 15.96,6.78 4.05,4.52 6.08,10.36 6.08,17.53 0,7.17 -2.02,13.01 -6.08,17.53 -4.05,4.52 -9.37,6.78 -15.96,6.78 -6.59,0 -11.91,-2.26 -15.96,-6.78 -4.05,-4.52 -6.07,-10.36 -6.07,-17.53 0,-7.17 2.02,-13.01 6.07,-17.53zm5.81 29.85c2.49,3.14 5.88,4.71 10.15,4.71 4.27,0 7.67,-1.58 10.18,-4.74 2.52,-3.16 3.77,-7.26 3.77,-12.29 0,-5.03 -1.26,-9.13 -3.77,-12.29 -2.52,-3.16 -5.91,-4.74 -10.18,-4.74 -4.27,0 -7.66,1.57 -10.15,4.71 -2.49,3.14 -3.74,7.24 -3.74,12.32 0,5.07 1.25,9.18 3.74,12.32zm40.8 -35.82l9.82 0 15.02 36.39 14.96 -36.39 9.68 0 0 47.01 -7.54 0 0 -33.99 -13.96 33.79 -6.41 0 -13.96 -33.79 0 33.99 -7.61 0 0 -47.01z"/>
   <g>
    <path class="fil1 str0" d="M209.17 311.59c1.45,0 2.83,-0.64 3.77,-1.75 2.71,-3.24 66.33,-79.62 66.33,-116.97 0,-38.65 -31.45,-70.09 -70.09,-70.09 -38.65,0 -70.1,31.44 -70.1,70.09 0,37.35 63.62,113.74 66.32,116.97 0.94,1.11 2.32,1.75 3.77,1.75z"/>
    <path class="fil1 str1" d="M239.19 187.39c0,-16.04 -13.05,-29.09 -29.09,-29.09 -16.04,0 -29.09,13.05 -29.09,29.09 0,16.03 13.05,29.09 29.09,29.09 16.04,0 29.09,-13.05 29.09,-29.09z"/>
    <path class="fil1 str0" d="M176.68 286.94c-23.9,4.72 -37.6,13.89 -37.6,25.17 0,18.49 35.26,28.15 70.1,28.15 34.83,0 70.09,-9.66 70.09,-28.15 0,-11.16 -13.48,-20.29 -36.99,-25.04"/>
   </g>
  </g>
  <rect class="fil2" x="0" width="418.34" height="570.46"/>
 </g>
</svg>