<svg width="239" height="53" viewBox="0 0 239 53" fill="none" xmlns="http://www.w3.org/2000/svg">
<g filter="url(#filter0_d_82_222)">
<path d="M4 22.5C4 10.0736 14.0736 0 26.5 0H212.252C224.678 0 234.752 10.0736 234.752 22.5C234.752 34.9264 224.678 45 212.252 45H26.5C14.0736 45 4 34.9264 4 22.5Z" fill="#2CA4D7"/>
</g>
<g clip-path="url(#clip0_82_222)" filter="url(#filter1_i_82_222)">
<path d="M212.5 45C224.927 45 235 34.9266 235 22.5C235 10.0734 224.927 0 212.5 0C200.073 0 190 10.0734 190 22.5C190 34.9266 200.073 45 212.5 45Z" fill="url(#paint0_linear_82_222)"/>
<path d="M208.375 32.8125C207.647 32.8125 207.77 32.5369 207.518 31.8431L205.375 24.7884L221.875 15" fill="#C8DAEA"/>
<path d="M208.375 32.8127C208.938 32.8127 209.186 32.5549 209.5 32.2502L212.5 29.3327L208.757 27.0762" fill="#A9C9DD"/>
<path d="M208.758 27.0769L217.825 33.7763C218.86 34.3472 219.606 34.0519 219.864 32.8154L223.555 15.4229C223.933 13.9069 222.977 13.2197 221.987 13.6697L200.314 22.0266C198.835 22.62 198.843 23.445 200.045 23.8135L205.607 25.5488L218.483 17.4254C219.091 17.0569 219.648 17.2557 219.191 17.6616" fill="url(#paint1_linear_82_222)"/>
</g>
<path d="M40.25 26.25H30.75L29.25 29H27.5L34.5 17H36.5L43.5 29H41.75L40.25 26.25ZM39.5 25L35.5 18L31.5 25H39.5ZM45.5 17H54.5156C55.2604 17 55.888 17.0339 56.3984 17.1016C56.9141 17.1641 57.3385 17.2604 57.6719 17.3906C58.0052 17.5208 58.2604 17.6823 58.4375 17.875C58.6198 18.0677 58.7526 18.2943 58.8359 18.5547C58.9193 18.8151 58.9661 19.1068 58.9766 19.4297C58.9922 19.7526 59 20.1094 59 20.5C59 20.9062 58.9896 21.2812 58.9688 21.625C58.9531 21.9688 58.8932 22.2812 58.7891 22.5625C58.6901 22.8385 58.5286 23.0833 58.3047 23.2969C58.0859 23.5052 57.7708 23.6797 57.3594 23.8203C56.9531 23.9609 56.4349 24.0677 55.8047 24.1406C55.1797 24.2135 54.4089 24.25 53.4922 24.25H47V29H45.5V17ZM47 23H53.4922C54.1589 23 54.7188 22.9896 55.1719 22.9688C55.6302 22.9427 56.0078 22.8984 56.3047 22.8359C56.6016 22.7734 56.8307 22.6849 56.9922 22.5703C57.1536 22.4557 57.2708 22.3047 57.3438 22.1172C57.4219 21.9297 57.4661 21.7057 57.4766 21.4453C57.4922 21.1797 57.5 20.8646 57.5 20.5C57.5 20.1615 57.4922 19.8698 57.4766 19.625C57.4661 19.3802 57.4219 19.1745 57.3438 19.0078C57.2708 18.8411 57.1536 18.7083 56.9922 18.6094C56.8307 18.5104 56.6016 18.4349 56.3047 18.3828C56.0078 18.3255 55.6302 18.2891 55.1719 18.2734C54.7188 18.2578 54.1589 18.25 53.4922 18.25H47V23ZM61 17H70.0156C70.7604 17 71.388 17.0339 71.8984 17.1016C72.4141 17.1641 72.8385 17.2604 73.1719 17.3906C73.5052 17.5208 73.7604 17.6823 73.9375 17.875C74.1198 18.0677 74.2526 18.2943 74.3359 18.5547C74.4193 18.8151 74.4661 19.1068 74.4766 19.4297C74.4922 19.7526 74.5 20.1094 74.5 20.5C74.5 20.9062 74.4896 21.2812 74.4688 21.625C74.4531 21.9688 74.3932 22.2812 74.2891 22.5625C74.1901 22.8385 74.0286 23.0833 73.8047 23.2969C73.5859 23.5052 73.2708 23.6797 72.8594 23.8203C72.4531 23.9609 71.9349 24.0677 71.3047 24.1406C70.6797 24.2135 69.9089 24.25 68.9922 24.25H62.5V29H61V17ZM62.5 23H68.9922C69.6589 23 70.2188 22.9896 70.6719 22.9688C71.1302 22.9427 71.5078 22.8984 71.8047 22.8359C72.1016 22.7734 72.3307 22.6849 72.4922 22.5703C72.6536 22.4557 72.7708 22.3047 72.8438 22.1172C72.9219 21.9297 72.9661 21.7057 72.9766 21.4453C72.9922 21.1797 73 20.8646 73 20.5C73 20.1615 72.9922 19.8698 72.9766 19.625C72.9661 19.3802 72.9219 19.1745 72.8438 19.0078C72.7708 18.8411 72.6536 18.7083 72.4922 18.6094C72.3307 18.5104 72.1016 18.4349 71.8047 18.3828C71.5078 18.3255 71.1302 18.2891 70.6719 18.2734C70.2188 18.2578 69.6589 18.25 68.9922 18.25H62.5V23ZM76.5 29V17H78V27.75H87.5V29H76.5ZM89.5 17H91V29H89.5V17ZM106.492 20.75C106.492 20.125 106.424 19.6302 106.289 19.2656C106.154 18.901 105.93 18.625 105.617 18.4375C105.305 18.25 104.893 18.1302 104.383 18.0781C103.878 18.026 103.25 18 102.5 18H98.9922C98.3255 18 97.763 18.0208 97.3047 18.0625C96.8516 18.099 96.4766 18.1771 96.1797 18.2969C95.8828 18.4167 95.6536 18.5885 95.4922 18.8125C95.3307 19.0365 95.2135 19.3333 95.1406 19.7031C95.0677 20.0729 95.026 20.5286 95.0156 21.0703C95.0052 21.6068 95 22.25 95 23C95 23.75 95.0052 24.3958 95.0156 24.9375C95.0312 25.474 95.0755 25.9271 95.1484 26.2969C95.2214 26.6667 95.3359 26.9635 95.4922 27.1875C95.6536 27.4115 95.8828 27.5833 96.1797 27.7031C96.4766 27.8229 96.8516 27.9036 97.3047 27.9453C97.763 27.9818 98.3255 28 98.9922 28H102.5C103.083 28 103.586 27.9844 104.008 27.9531C104.43 27.9219 104.789 27.8646 105.086 27.7812C105.383 27.6979 105.622 27.5833 105.805 27.4375C105.987 27.2917 106.128 27.1094 106.227 26.8906C106.331 26.6667 106.401 26.401 106.438 26.0938C106.474 25.7812 106.492 25.4167 106.492 25H107.992C107.992 25.5 107.961 25.9531 107.898 26.3594C107.836 26.7604 107.724 27.1198 107.562 27.4375C107.406 27.75 107.195 28.0208 106.93 28.25C106.664 28.4792 106.328 28.6693 105.922 28.8203C105.516 28.9661 105.031 29.0729 104.469 29.1406C103.906 29.2135 103.25 29.25 102.5 29.25H98.9922C98.0755 29.25 97.3021 29.1927 96.6719 29.0781C96.0469 28.9688 95.5312 28.8021 95.125 28.5781C94.7188 28.349 94.4036 28.0625 94.1797 27.7188C93.9609 27.375 93.7995 26.9714 93.6953 26.5078C93.5964 26.0443 93.5391 25.5208 93.5234 24.9375C93.5078 24.3542 93.5 23.7083 93.5 23C93.5 22.2917 93.5078 21.6458 93.5234 21.0625C93.5391 20.4792 93.5964 19.9557 93.6953 19.4922C93.7995 19.0286 93.9609 18.625 94.1797 18.2812C94.4036 17.9375 94.7188 17.6536 95.125 17.4297C95.5312 17.2005 96.0469 17.0312 96.6719 16.9219C97.3021 16.8073 98.0755 16.75 98.9922 16.75H102.5C103.25 16.75 103.906 16.7865 104.469 16.8594C105.031 16.9271 105.516 17.0339 105.922 17.1797C106.328 17.3203 106.664 17.5 106.93 17.7188C107.195 17.9375 107.406 18.1953 107.562 18.4922C107.724 18.7891 107.836 19.125 107.898 19.5C107.961 19.875 107.992 20.2917 107.992 20.75H106.492ZM122.25 26.25H112.75L111.25 29H109.5L116.5 17H118.5L125.5 29H123.75L122.25 26.25ZM121.5 25L117.5 18L113.5 25H121.5ZM140.5 17V18.25H134.5V29H133V18.25H127V17H140.5ZM152.508 16.75C153.424 16.75 154.195 16.8073 154.82 16.9219C155.451 17.0312 155.969 17.2005 156.375 17.4297C156.781 17.6536 157.094 17.9375 157.312 18.2812C157.531 18.625 157.69 19.0286 157.789 19.4922C157.893 19.9557 157.953 20.4792 157.969 21.0625C157.99 21.6458 158 22.2917 158 23C158 23.7083 157.99 24.3542 157.969 24.9375C157.953 25.5208 157.893 26.0443 157.789 26.5078C157.69 26.9714 157.531 27.375 157.312 27.7188C157.094 28.0625 156.781 28.349 156.375 28.5781C155.969 28.8021 155.451 28.9688 154.82 29.0781C154.195 29.1927 153.424 29.25 152.508 29.25H147.992C147.076 29.25 146.302 29.1927 145.672 29.0781C145.047 28.9688 144.531 28.8021 144.125 28.5781C143.719 28.349 143.404 28.0625 143.18 27.7188C142.961 27.375 142.799 26.9714 142.695 26.5078C142.596 26.0443 142.539 25.5208 142.523 24.9375C142.508 24.3542 142.5 23.7083 142.5 23C142.5 22.2917 142.508 21.6458 142.523 21.0625C142.539 20.4792 142.596 19.9557 142.695 19.4922C142.799 19.0286 142.961 18.625 143.18 18.2812C143.404 17.9375 143.719 17.6536 144.125 17.4297C144.531 17.2005 145.047 17.0312 145.672 16.9219C146.302 16.8073 147.076 16.75 147.992 16.75H152.508ZM152.508 28C153.169 28 153.727 27.9818 154.18 27.9453C154.638 27.9036 155.016 27.8229 155.312 27.7031C155.609 27.5833 155.839 27.4115 156 27.1875C156.161 26.9635 156.279 26.6667 156.352 26.2969C156.424 25.9271 156.466 25.474 156.477 24.9375C156.492 24.3958 156.5 23.75 156.5 23C156.5 22.25 156.492 21.6068 156.477 21.0703C156.466 20.5286 156.424 20.0729 156.352 19.7031C156.279 19.3333 156.161 19.0365 156 18.8125C155.839 18.5885 155.609 18.4167 155.312 18.2969C155.021 18.1771 154.646 18.099 154.188 18.0625C153.734 18.0208 153.174 18 152.508 18H147.992C147.326 18 146.763 18.0208 146.305 18.0625C145.852 18.099 145.477 18.1771 145.18 18.2969C144.883 18.4167 144.654 18.5885 144.492 18.8125C144.331 19.0365 144.214 19.3333 144.141 19.7031C144.068 20.0729 144.026 20.5286 144.016 21.0703C144.005 21.6068 144 22.25 144 23C144 23.75 144.005 24.3958 144.016 24.9375C144.031 25.474 144.076 25.9271 144.148 26.2969C144.221 26.6667 144.336 26.9635 144.492 27.1875C144.654 27.4115 144.883 27.5833 145.18 27.7031C145.477 27.8229 145.852 27.9036 146.305 27.9453C146.763 27.9818 147.326 28 147.992 28H152.508ZM162 29H160.5V17H163.133L174.133 27.5V17H175.633V29H173.633L162 18.25V29Z" fill="#1C1C1C"/>
<defs>
<filter id="filter0_d_82_222" x="0" y="0" width="238.752" height="53" filterUnits="userSpaceOnUse" color-interpolation-filters="sRGB">
<feFlood flood-opacity="0" result="BackgroundImageFix"/>
<feColorMatrix in="SourceAlpha" type="matrix" values="0 0 0 0 0 0 0 0 0 0 0 0 0 0 0 0 0 0 127 0" result="hardAlpha"/>
<feOffset dy="4"/>
<feGaussianBlur stdDeviation="2"/>
<feComposite in2="hardAlpha" operator="out"/>
<feColorMatrix type="matrix" values="0 0 0 0 0 0 0 0 0 0 0 0 0 0 0 0 0 0 0.25 0"/>
<feBlend mode="normal" in2="BackgroundImageFix" result="effect1_dropShadow_82_222"/>
<feBlend mode="normal" in="SourceGraphic" in2="effect1_dropShadow_82_222" result="shape"/>
</filter>
<filter id="filter1_i_82_222" x="190" y="0" width="45" height="49" filterUnits="userSpaceOnUse" color-interpolation-filters="sRGB">
<feFlood flood-opacity="0" result="BackgroundImageFix"/>
<feBlend mode="normal" in="SourceGraphic" in2="BackgroundImageFix" result="shape"/>
<feColorMatrix in="SourceAlpha" type="matrix" values="0 0 0 0 0 0 0 0 0 0 0 0 0 0 0 0 0 0 127 0" result="hardAlpha"/>
<feOffset dy="4"/>
<feGaussianBlur stdDeviation="2"/>
<feComposite in2="hardAlpha" operator="arithmetic" k2="-1" k3="1"/>
<feColorMatrix type="matrix" values="0 0 0 0 0 0 0 0 0 0 0 0 0 0 0 0 0 0 0.25 0"/>
<feBlend mode="normal" in2="shape" result="effect1_innerShadow_82_222"/>
</filter>
<linearGradient id="paint0_linear_82_222" x1="206.877" y1="1.87688" x2="195.627" y2="28.125" gradientUnits="userSpaceOnUse">
<stop stop-color="#37AEE2"/>
<stop offset="1" stop-color="#1E96C8"/>
</linearGradient>
<linearGradient id="paint1_linear_82_222" x1="209.684" y1="23.8819" x2="212.088" y2="31.6585" gradientUnits="userSpaceOnUse">
<stop stop-color="#EFF7FC"/>
<stop offset="1" stop-color="white"/>
</linearGradient>
<clipPath id="clip0_82_222">
<rect width="45" height="45" fill="white" transform="translate(190)"/>
</clipPath>
</defs>
</svg>
