<svg width="328" height="83" viewBox="0 0 328 83" fill="none" xmlns="http://www.w3.org/2000/svg">
<path d="M125.406 58.25V59.5781H119.031V71H117.438V59.5781H111.062V58.25H125.406ZM135.766 64.5503C135.766 64.1519 135.735 63.8226 135.674 63.5625C135.619 63.2969 135.483 63.0866 135.268 62.9316C135.052 62.7712 134.731 62.6605 134.305 62.5996C133.884 62.5332 133.309 62.5 132.578 62.5C131.864 62.5 131.283 62.5636 130.835 62.6909C130.387 62.8127 130.035 62.987 129.781 63.2139C129.526 63.4408 129.352 63.7119 129.258 64.0273C129.169 64.3428 129.125 64.6942 129.125 65.0815V71H127.531V61.4375H129.125V62.9565C129.18 62.785 129.283 62.5968 129.432 62.3921C129.582 62.1818 129.808 61.9881 130.113 61.811C130.417 61.6284 130.81 61.4762 131.292 61.3545C131.778 61.2327 132.384 61.1719 133.109 61.1719C133.939 61.1719 134.615 61.2466 135.135 61.396C135.655 61.5399 136.059 61.7557 136.347 62.0435C136.64 62.3257 136.836 62.6771 136.936 63.0977C137.041 63.5182 137.094 64.0024 137.094 64.5503H135.766ZM147.677 69.6885C147.661 69.7549 147.536 69.9209 147.304 70.1865C147.138 70.3857 146.916 70.5628 146.64 70.7178C146.363 70.8672 145.992 70.9834 145.527 71.0664C145.068 71.1549 144.462 71.1992 143.709 71.1992C142.708 71.1992 141.853 71.1466 141.145 71.0415C140.436 70.9419 139.858 70.7869 139.41 70.5767C138.961 70.3608 138.632 70.0869 138.422 69.7549C138.217 69.4229 138.115 69.0272 138.115 68.5679C138.115 68.0864 138.17 67.6797 138.281 67.3477C138.397 67.0101 138.563 66.7279 138.779 66.501C139 66.2741 139.266 66.097 139.576 65.9697C139.886 65.8424 140.237 65.7456 140.63 65.6792C141.028 65.6128 141.463 65.5713 141.933 65.5547C142.403 65.5381 142.904 65.5298 143.436 65.5298C144.194 65.5298 144.827 65.563 145.336 65.6294C145.846 65.6903 146.261 65.7705 146.582 65.8701C146.908 65.9642 147.154 66.0666 147.32 66.1772C147.486 66.2879 147.605 66.3903 147.677 66.4844C147.677 65.8646 147.65 65.3361 147.594 64.8989C147.544 64.4618 147.459 64.0965 147.337 63.8032C147.221 63.5099 147.069 63.2775 146.88 63.106C146.692 62.9289 146.46 62.7961 146.183 62.7075C145.912 62.619 145.594 62.5636 145.229 62.5415C144.863 62.5138 144.445 62.5 143.975 62.5C143.245 62.5 142.639 62.5194 142.157 62.5581C141.676 62.5913 141.294 62.6605 141.012 62.7656C140.729 62.8708 140.53 63.0174 140.414 63.2056C140.298 63.3882 140.24 63.6289 140.24 63.9277H138.646C138.646 63.4242 138.735 62.998 138.912 62.6494C139.094 62.3008 139.393 62.0186 139.808 61.8027C140.229 61.5814 140.779 61.4209 141.46 61.3213C142.141 61.2217 142.979 61.1719 143.975 61.1719C144.949 61.1719 145.774 61.2521 146.449 61.4126C147.124 61.5731 147.669 61.8553 148.084 62.2593C148.505 62.6632 148.806 63.2083 148.989 63.8945C149.177 64.5752 149.271 65.4385 149.271 66.4844V71H147.677V69.6885ZM143.975 69.9375C144.678 69.9375 145.264 69.9043 145.735 69.8379C146.211 69.7715 146.593 69.6719 146.88 69.5391C147.168 69.4062 147.373 69.2402 147.495 69.041C147.616 68.8418 147.677 68.6094 147.677 68.3438C147.677 68.0781 147.605 67.854 147.461 67.6714C147.323 67.4832 147.088 67.3311 146.756 67.2148C146.429 67.0986 145.995 67.0156 145.453 66.9658C144.91 66.9105 144.241 66.8828 143.444 66.8828C142.647 66.8828 142.002 66.8966 141.51 66.9243C141.023 66.952 140.646 67.0156 140.381 67.1152C140.115 67.2148 139.935 67.3615 139.841 67.5552C139.753 67.7489 139.708 68.0117 139.708 68.3438C139.708 68.6758 139.756 68.9469 139.85 69.1572C139.949 69.362 140.148 69.5225 140.447 69.6387C140.746 69.7549 141.175 69.8351 141.734 69.8794C142.298 69.9181 143.045 69.9375 143.975 69.9375ZM156.982 71.1826C155.92 71.1826 155.018 71.1051 154.276 70.9502C153.535 70.7952 152.932 70.5296 152.467 70.1533C152.002 69.777 151.664 69.2707 151.454 68.6343C151.244 67.9979 151.139 67.1982 151.139 66.2354C151.139 65.2393 151.244 64.4147 151.454 63.7617C151.664 63.1087 152.002 62.5913 152.467 62.2095C152.932 61.8276 153.535 61.5592 154.276 61.4043C155.018 61.2493 155.92 61.1719 156.982 61.1719C157.735 61.1719 158.366 61.2106 158.875 61.2881C159.384 61.3656 159.799 61.4624 160.12 61.5786C160.447 61.6948 160.693 61.8221 160.859 61.9604C161.03 62.0933 161.155 62.2178 161.232 62.334V58.25H162.826V71H161.232V69.5806C161.232 69.5806 161.1 69.7383 160.834 70.0537C160.602 70.2806 160.344 70.4632 160.062 70.6016C159.78 70.7399 159.384 70.8727 158.875 71C158.366 71.1217 157.735 71.1826 156.982 71.1826ZM156.982 69.9375C157.514 69.9375 157.987 69.9264 158.402 69.9043C158.817 69.8766 159.182 69.8213 159.498 69.7383C159.813 69.6553 160.079 69.5335 160.294 69.373C160.516 69.207 160.696 68.9884 160.834 68.7173C160.972 68.4461 161.072 68.1113 161.133 67.7129C161.199 67.3089 161.232 66.8247 161.232 66.2603C161.232 65.6737 161.199 65.1756 161.133 64.7661C161.072 64.3511 160.972 64.0052 160.834 63.7285C160.696 63.4463 160.516 63.2249 160.294 63.0645C160.079 62.904 159.813 62.7822 159.498 62.6992C159.182 62.6107 158.817 62.5553 158.402 62.5332C157.987 62.5111 157.514 62.5 156.982 62.5C156.363 62.5 155.826 62.5194 155.372 62.5581C154.924 62.5968 154.542 62.666 154.227 62.7656C153.911 62.8652 153.654 63.0036 153.455 63.1807C153.261 63.3577 153.109 63.5846 152.998 63.8613C152.893 64.138 152.821 64.4728 152.782 64.8657C152.749 65.2531 152.732 65.7096 152.732 66.2354C152.732 66.7555 152.749 67.2093 152.782 67.5967C152.821 67.9785 152.893 68.3078 152.998 68.5845C153.109 68.8556 153.261 69.0798 153.455 69.2568C153.654 69.4339 153.911 69.5723 154.227 69.6719C154.542 69.7715 154.924 69.8407 155.372 69.8794C155.826 69.9181 156.363 69.9375 156.982 69.9375ZM170.529 71.1826C169.467 71.1826 168.565 71.1107 167.823 70.9668C167.082 70.8174 166.479 70.5628 166.014 70.2031C165.549 69.8434 165.211 69.362 165.001 68.7588C164.791 68.1556 164.686 67.3975 164.686 66.4844C164.686 65.4385 164.791 64.5752 165.001 63.8945C165.211 63.2083 165.549 62.6632 166.014 62.2593C166.479 61.8553 167.082 61.5731 167.823 61.4126C168.565 61.2521 169.467 61.1719 170.529 61.1719C171.287 61.1719 171.943 61.2272 172.497 61.3379C173.056 61.4486 173.531 61.609 173.924 61.8193C174.323 62.0296 174.644 62.2842 174.887 62.583C175.136 62.8818 175.33 63.1973 175.468 63.5293C175.612 63.8558 175.709 64.2404 175.759 64.6831C175.814 65.1258 175.842 65.5934 175.842 66.0859L175.709 66.6172H166.279C166.279 67.3477 166.351 67.9481 166.495 68.4185C166.639 68.8833 166.877 69.2236 167.209 69.4395C167.541 69.6553 167.978 69.7936 168.521 69.8545C169.063 69.9098 169.732 69.9375 170.529 69.9375C171.26 69.9375 171.863 69.9181 172.339 69.8794C172.82 69.8351 173.202 69.7549 173.484 69.6387C173.767 69.5225 173.963 69.362 174.074 69.1572C174.19 68.9469 174.248 68.6758 174.248 68.3438H175.842C175.842 68.8584 175.75 69.2983 175.568 69.6636C175.391 70.0233 175.095 70.3166 174.68 70.5435C174.265 70.7648 173.717 70.9253 173.036 71.0249C172.361 71.13 171.525 71.1826 170.529 71.1826ZM170.529 62.5C169.998 62.5 169.522 62.5111 169.102 62.5332C168.687 62.5553 168.321 62.6051 168.006 62.6826C167.696 62.7546 167.43 62.8625 167.209 63.0063C166.988 63.1447 166.808 63.3107 166.669 63.5044C166.537 63.6925 166.437 63.9609 166.371 64.3096C166.31 64.6527 166.279 65.0677 166.279 65.5547H174.248C174.248 64.9072 174.179 64.4009 174.041 64.0356C173.902 63.6649 173.684 63.3605 173.385 63.1226C173.086 62.8846 172.701 62.7214 172.231 62.6328C171.761 62.5443 171.193 62.5 170.529 62.5ZM187.264 66.6421C186.511 66.6421 185.85 66.631 185.28 66.6089C184.71 66.5868 184.217 66.5425 183.802 66.4761C183.393 66.4041 183.05 66.3045 182.773 66.1772C182.502 66.05 182.286 65.8812 182.125 65.6709C181.965 65.4551 181.852 65.1922 181.785 64.8823C181.719 64.5669 181.686 64.2266 181.686 63.8613C181.686 63.3633 181.791 62.9455 182.001 62.6079C182.211 62.2648 182.549 61.9881 183.014 61.7778C183.479 61.562 184.082 61.4071 184.823 61.313C185.565 61.2189 186.467 61.1719 187.529 61.1719C188.581 61.1719 189.447 61.2272 190.127 61.3379C190.814 61.4486 191.356 61.6201 191.754 61.8525C192.158 62.0794 192.441 62.3672 192.601 62.7158C192.762 63.0645 192.842 63.4795 192.842 63.9609H191.248C191.248 63.6621 191.19 63.4186 191.074 63.2305C190.963 63.0423 190.767 62.8957 190.484 62.7905C190.202 62.6799 189.82 62.6051 189.339 62.5664C188.863 62.5221 188.26 62.5 187.529 62.5C186.732 62.5 186.063 62.5111 185.521 62.5332C184.978 62.5553 184.541 62.6107 184.209 62.6992C183.877 62.7878 183.639 62.9233 183.495 63.106C183.351 63.2886 183.279 63.5404 183.279 63.8613C183.279 64.0495 183.29 64.2349 183.312 64.4175C183.34 64.5946 183.398 64.7412 183.487 64.8574C183.575 64.9736 183.705 65.0622 183.877 65.123C184.049 65.1839 184.281 65.231 184.574 65.2642C184.873 65.2918 185.241 65.3084 185.678 65.314C186.115 65.314 186.644 65.314 187.264 65.314C188.016 65.314 188.675 65.3306 189.239 65.3638C189.809 65.397 190.302 65.4551 190.717 65.5381C191.132 65.6211 191.475 65.7484 191.746 65.9199C192.017 66.0915 192.233 66.2796 192.394 66.4844C192.56 66.6836 192.676 66.9215 192.742 67.1982C192.809 67.4694 192.842 67.7848 192.842 68.1445C192.842 68.5042 192.809 68.828 192.742 69.1157C192.676 69.3979 192.56 69.6497 192.394 69.8711C192.228 70.0869 192.001 70.2751 191.713 70.4355C191.431 70.5905 191.074 70.7178 190.642 70.8174C190.21 70.9115 189.693 70.9806 189.09 71.0249C188.492 71.0747 187.795 71.0996 186.998 71.0996C186.002 71.0996 185.164 71.0498 184.483 70.9502C183.808 70.8506 183.263 70.6929 182.848 70.4771C182.433 70.2557 182.134 69.9707 181.951 69.6221C181.774 69.2734 181.686 68.8473 181.686 68.3438H183.279C183.279 68.6758 183.335 68.9469 183.445 69.1572C183.562 69.362 183.761 69.5225 184.043 69.6387C184.325 69.7549 184.704 69.8351 185.18 69.8794C185.662 69.9181 186.268 69.9375 186.998 69.9375C187.662 69.9375 188.227 69.9237 188.691 69.896C189.162 69.8628 189.555 69.813 189.87 69.7466C190.186 69.6802 190.435 69.5999 190.617 69.5059C190.8 69.4118 190.938 69.2983 191.032 69.1655C191.126 69.0327 191.184 68.8861 191.207 68.7256C191.234 68.5596 191.248 68.377 191.248 68.1777C191.248 67.9951 191.234 67.8346 191.207 67.6963C191.184 67.5524 191.129 67.4113 191.041 67.2729C190.952 67.1291 190.822 67.0212 190.65 66.9492C190.479 66.8773 190.244 66.8192 189.945 66.7749C189.652 66.7251 189.286 66.6919 188.849 66.6753C188.412 66.6532 187.883 66.6421 187.264 66.6421ZM195.498 61.4375H197.092V71H195.498V61.4375ZM197.092 59.8438H195.498V58.25H197.092V59.8438ZM209.311 71V65.6875C209.311 65.0954 209.266 64.5973 209.178 64.1934C209.089 63.7839 208.912 63.4546 208.646 63.2056C208.381 62.9565 208.005 62.7767 207.518 62.666C207.031 62.5553 206.389 62.5 205.592 62.5C204.729 62.5 204.02 62.5636 203.467 62.6909C202.919 62.8182 202.487 62.998 202.172 63.2305C201.856 63.4629 201.638 63.7424 201.516 64.0688C201.4 64.3953 201.342 64.7578 201.342 65.1562V71H199.748V61.4375H201.342V63.0312C201.458 62.7601 201.624 62.5277 201.84 62.334C202.056 62.1348 202.299 61.966 202.57 61.8276C202.841 61.6893 203.135 61.5786 203.45 61.4956C203.766 61.4071 204.081 61.3407 204.396 61.2964C204.712 61.2466 205.016 61.2134 205.31 61.1968C205.608 61.1802 205.88 61.1719 206.123 61.1719C206.831 61.1719 207.44 61.2161 207.949 61.3047C208.464 61.3932 208.898 61.5233 209.252 61.6948C209.612 61.8664 209.9 62.0794 210.116 62.334C210.332 62.5885 210.498 62.8846 210.614 63.2222C210.736 63.5542 210.816 63.9277 210.854 64.3428C210.893 64.7523 210.913 65.2005 210.913 65.6875L210.904 71H209.311ZM212.78 66.2354C212.78 65.5713 212.813 64.9847 212.88 64.4756C212.946 63.9665 213.062 63.5238 213.229 63.1475C213.4 62.7712 213.627 62.4585 213.909 62.2095C214.197 61.9549 214.557 61.7502 214.988 61.5952C215.425 61.4403 215.943 61.3296 216.541 61.2632C217.138 61.1968 217.835 61.1636 218.632 61.1636C219.695 61.1636 220.569 61.23 221.255 61.3628C221.942 61.4901 222.484 61.6893 222.882 61.9604C223.281 62.2261 223.557 62.5664 223.712 62.9814C223.867 63.391 223.945 63.8807 223.945 64.4507H222.351C222.351 64.2459 222.346 64.055 222.334 63.8779C222.323 63.7008 222.282 63.5404 222.21 63.3965C222.144 63.2526 222.036 63.1253 221.886 63.0146C221.737 62.8984 221.524 62.8016 221.247 62.7241C220.97 62.6466 220.619 62.5885 220.193 62.5498C219.772 62.5111 219.252 62.4917 218.632 62.4917C217.924 62.4917 217.326 62.5166 216.839 62.5664C216.358 62.6162 215.959 62.6992 215.644 62.8154C215.329 62.9261 215.085 63.0783 214.914 63.272C214.742 63.4601 214.618 63.6925 214.54 63.9692C214.463 64.2459 214.416 64.5724 214.399 64.9487C214.388 65.3195 214.382 65.7484 214.382 66.2354C214.382 66.7113 214.388 67.1346 214.399 67.5054C214.416 67.8706 214.463 68.1916 214.54 68.4683C214.618 68.7394 214.742 68.9691 214.914 69.1572C215.085 69.3454 215.329 69.4976 215.644 69.6138C215.959 69.73 216.358 69.813 216.839 69.8628C217.326 69.9126 217.924 69.9375 218.632 69.9375C219.252 69.9375 219.772 69.9154 220.193 69.8711C220.619 69.8268 220.97 69.7632 221.247 69.6802C221.524 69.5972 221.737 69.4948 221.886 69.373C222.036 69.2513 222.144 69.113 222.21 68.958C222.282 68.7975 222.323 68.6232 222.334 68.4351C222.346 68.2414 222.351 68.0339 222.351 67.8125H223.945C223.945 68.3936 223.867 68.8971 223.712 69.3232C223.557 69.7493 223.281 70.1007 222.882 70.3774C222.484 70.6486 221.942 70.8506 221.255 70.9834C220.569 71.1162 219.695 71.1826 218.632 71.1826C217.835 71.1826 217.138 71.1494 216.541 71.083C215.943 71.0166 215.425 70.9087 214.988 70.7593C214.557 70.6043 214.197 70.4023 213.909 70.1533C213.627 69.9043 213.4 69.5972 213.229 69.2319C213.062 68.8667 212.946 68.4378 212.88 67.9453C212.813 67.4473 212.78 66.8773 212.78 66.2354ZM231.656 71.1826C230.594 71.1826 229.692 71.1107 228.95 70.9668C228.209 70.8174 227.605 70.5628 227.141 70.2031C226.676 69.8434 226.338 69.362 226.128 68.7588C225.918 68.1556 225.812 67.3975 225.812 66.4844C225.812 65.4385 225.918 64.5752 226.128 63.8945C226.338 63.2083 226.676 62.6632 227.141 62.2593C227.605 61.8553 228.209 61.5731 228.95 61.4126C229.692 61.2521 230.594 61.1719 231.656 61.1719C232.414 61.1719 233.07 61.2272 233.624 61.3379C234.182 61.4486 234.658 61.609 235.051 61.8193C235.45 62.0296 235.771 62.2842 236.014 62.583C236.263 62.8818 236.457 63.1973 236.595 63.5293C236.739 63.8558 236.836 64.2404 236.886 64.6831C236.941 65.1258 236.969 65.5934 236.969 66.0859L236.836 66.6172H227.406C227.406 67.3477 227.478 67.9481 227.622 68.4185C227.766 68.8833 228.004 69.2236 228.336 69.4395C228.668 69.6553 229.105 69.7936 229.647 69.8545C230.19 69.9098 230.859 69.9375 231.656 69.9375C232.387 69.9375 232.99 69.9181 233.466 69.8794C233.947 69.8351 234.329 69.7549 234.611 69.6387C234.894 69.5225 235.09 69.362 235.201 69.1572C235.317 68.9469 235.375 68.6758 235.375 68.3438H236.969C236.969 68.8584 236.877 69.2983 236.695 69.6636C236.518 70.0233 236.222 70.3166 235.807 70.5435C235.392 70.7648 234.844 70.9253 234.163 71.0249C233.488 71.13 232.652 71.1826 231.656 71.1826ZM231.656 62.5C231.125 62.5 230.649 62.5111 230.229 62.5332C229.813 62.5553 229.448 62.6051 229.133 62.6826C228.823 62.7546 228.557 62.8625 228.336 63.0063C228.115 63.1447 227.935 63.3107 227.796 63.5044C227.664 63.6925 227.564 63.9609 227.498 64.3096C227.437 64.6527 227.406 65.0677 227.406 65.5547H235.375C235.375 64.9072 235.306 64.4009 235.167 64.0356C235.029 63.6649 234.811 63.3605 234.512 63.1226C234.213 62.8846 233.828 62.7214 233.358 62.6328C232.888 62.5443 232.32 62.5 231.656 62.5ZM242.812 69.4062C242.812 69.0742 242.821 68.745 242.837 68.4185C242.854 68.0864 242.89 67.771 242.945 67.4722C243.006 67.1678 243.092 66.8828 243.203 66.6172C243.319 66.3516 243.474 66.1191 243.667 65.9199C243.867 65.7152 244.113 65.5464 244.406 65.4136C244.7 65.2808 245.054 65.195 245.469 65.1562L253.969 64.3594C254.234 64.3372 254.467 64.2985 254.666 64.2432C254.865 64.1878 255.028 64.0827 255.156 63.9277C255.289 63.7673 255.388 63.5348 255.455 63.2305C255.521 62.9261 255.554 62.5083 255.554 61.9771C255.554 61.5343 255.521 61.1608 255.455 60.8564C255.388 60.5521 255.278 60.3003 255.123 60.1011C254.968 59.9019 254.757 59.7497 254.492 59.6445C254.232 59.5394 253.905 59.4619 253.512 59.4121C253.119 59.3623 252.654 59.3346 252.118 59.3291C251.581 59.318 250.958 59.3125 250.25 59.3125C249.276 59.3125 248.454 59.3319 247.785 59.3706C247.121 59.4038 246.57 59.4674 246.133 59.5615C245.701 59.6556 245.369 59.7829 245.137 59.9434C244.904 60.1038 244.733 60.3141 244.622 60.5742C244.517 60.8288 244.453 61.1359 244.431 61.4956C244.415 61.8553 244.406 62.2786 244.406 62.7656H242.812C242.812 61.9688 242.884 61.2992 243.028 60.7568C243.178 60.209 243.394 59.758 243.676 59.4038C243.964 59.0496 244.318 58.7757 244.738 58.582C245.159 58.3883 245.643 58.2472 246.191 58.1587C246.744 58.0701 247.359 58.0203 248.034 58.0093C248.714 57.9927 249.453 57.9844 250.25 57.9844C251.047 57.9844 251.769 57.9982 252.417 58.0259C253.069 58.048 253.651 58.1034 254.16 58.1919C254.674 58.2804 255.12 58.4105 255.496 58.582C255.872 58.7536 256.182 58.9888 256.426 59.2876C256.675 59.5809 256.857 59.9461 256.974 60.3833C257.095 60.8205 257.156 61.349 257.156 61.9688C257.156 62.5 257.118 62.9842 257.04 63.4214C256.963 63.853 256.824 64.2293 256.625 64.5503C256.426 64.8713 256.155 65.1286 255.812 65.3223C255.468 65.516 255.031 65.6377 254.5 65.6875L246 66.4844C245.596 66.5231 245.286 66.5978 245.07 66.7085C244.854 66.8192 244.697 66.9963 244.597 67.2397C244.498 67.4777 244.439 67.7931 244.423 68.186C244.412 68.5789 244.406 69.0742 244.406 69.6719H256.891V71H242.812V69.4062ZM268.321 57.9844C269.295 57.9844 270.114 58.0452 270.778 58.167C271.447 58.2832 271.998 58.4631 272.43 58.7065C272.861 58.9445 273.193 59.2461 273.426 59.6113C273.658 59.9766 273.827 60.4054 273.932 60.8979C274.043 61.3905 274.106 61.9466 274.123 62.5664C274.145 63.1862 274.156 63.8724 274.156 64.625C274.156 65.3776 274.145 66.0638 274.123 66.6836C274.106 67.3034 274.043 67.8595 273.932 68.3521C273.827 68.8446 273.658 69.2734 273.426 69.6387C273.193 70.0039 272.861 70.3083 272.43 70.5518C271.998 70.7897 271.447 70.9668 270.778 71.083C270.114 71.2048 269.295 71.2656 268.321 71.2656H265.125C264.151 71.2656 263.329 71.2048 262.66 71.083C261.996 70.9668 261.448 70.7897 261.016 70.5518C260.584 70.3083 260.25 70.0039 260.012 69.6387C259.779 69.2734 259.608 68.8446 259.497 68.3521C259.392 67.8595 259.331 67.3034 259.314 66.6836C259.298 66.0638 259.29 65.3776 259.29 64.625C259.29 63.8724 259.298 63.1862 259.314 62.5664C259.331 61.9466 259.392 61.3905 259.497 60.8979C259.608 60.4054 259.779 59.9766 260.012 59.6113C260.25 59.2461 260.584 58.9445 261.016 58.7065C261.448 58.4631 261.996 58.2832 262.66 58.167C263.329 58.0452 264.151 57.9844 265.125 57.9844H268.321ZM268.321 69.9375C269.029 69.9375 269.624 69.9181 270.105 69.8794C270.587 69.8351 270.985 69.7493 271.301 69.6221C271.616 69.4948 271.86 69.3122 272.031 69.0742C272.203 68.8363 272.327 68.5208 272.405 68.1279C272.482 67.735 272.527 67.2536 272.538 66.6836C272.554 66.1081 272.562 65.4219 272.562 64.625C272.562 63.8281 272.554 63.1447 272.538 62.5747C272.527 61.9992 272.482 61.515 272.405 61.1221C272.327 60.7292 272.203 60.4137 272.031 60.1758C271.86 59.9378 271.616 59.7552 271.301 59.6279C270.991 59.5007 270.592 59.4176 270.105 59.3789C269.624 59.3346 269.029 59.3125 268.321 59.3125H265.125C264.417 59.3125 263.819 59.3346 263.332 59.3789C262.851 59.4176 262.452 59.5007 262.137 59.6279C261.821 59.7552 261.578 59.9378 261.406 60.1758C261.235 60.4137 261.11 60.7292 261.033 61.1221C260.955 61.515 260.911 61.9992 260.9 62.5747C260.889 63.1447 260.883 63.8281 260.883 64.625C260.883 65.4219 260.889 66.1081 260.9 66.6836C260.917 67.2536 260.964 67.735 261.041 68.1279C261.118 68.5208 261.24 68.8363 261.406 69.0742C261.578 69.3122 261.821 69.4948 262.137 69.6221C262.452 69.7493 262.851 69.8351 263.332 69.8794C263.819 69.9181 264.417 69.9375 265.125 69.9375H268.321ZM280.266 58.25H282.391V71H280.797V59.5781L277.078 62.7656L276.281 61.7031L280.266 58.25ZM292.758 57.9844C293.954 57.9844 294.93 58.0591 295.688 58.2085C296.447 58.3579 297.039 58.5793 297.465 58.8726C297.896 59.1603 298.193 59.52 298.353 59.9517C298.514 60.3778 298.594 60.873 298.594 61.4375C298.594 61.7529 298.566 62.0518 298.511 62.334C298.455 62.6107 298.356 62.8652 298.212 63.0977C298.074 63.3301 297.885 63.5431 297.647 63.7368C297.41 63.925 297.105 64.0882 296.734 64.2266C297.155 64.3815 297.504 64.5669 297.78 64.7827C298.057 64.9985 298.273 65.242 298.428 65.5132C298.588 65.7843 298.699 66.0804 298.76 66.4014C298.826 66.7168 298.859 67.0544 298.859 67.4141C298.859 67.8291 298.826 68.2137 298.76 68.5679C298.693 68.9165 298.577 69.2347 298.411 69.5225C298.245 69.8047 298.018 70.0565 297.73 70.2778C297.448 70.4937 297.091 70.6763 296.66 70.8257C296.228 70.9696 295.711 71.0775 295.107 71.1494C294.51 71.2269 293.812 71.2656 293.016 71.2656H290.351C289.156 71.2656 288.179 71.1799 287.421 71.0083C286.663 70.8423 286.068 70.596 285.636 70.2695C285.21 69.943 284.917 69.5418 284.756 69.0659C284.596 68.5845 284.516 68.0339 284.516 67.4141C284.516 67.0544 284.546 66.7168 284.607 66.4014C284.668 66.0804 284.778 65.7843 284.939 65.5132C285.099 65.242 285.315 64.9985 285.586 64.7827C285.863 64.5669 286.215 64.3815 286.641 64.2266C286.27 64.0882 285.963 63.925 285.719 63.7368C285.481 63.5431 285.293 63.3301 285.155 63.0977C285.016 62.8652 284.92 62.6107 284.864 62.334C284.809 62.0518 284.781 61.7529 284.781 61.4375C284.781 60.873 284.861 60.3778 285.022 59.9517C285.182 59.52 285.476 59.1603 285.902 58.8726C286.333 58.5793 286.928 58.3579 287.687 58.2085C288.445 58.0591 289.421 57.9844 290.617 57.9844H292.758ZM293.016 69.9375C293.635 69.9375 294.169 69.9209 294.618 69.8877C295.071 69.849 295.453 69.7909 295.763 69.7134C296.079 69.6304 296.333 69.5252 296.527 69.3979C296.726 69.2707 296.878 69.113 296.983 68.9248C297.094 68.7367 297.169 68.5181 297.208 68.269C297.246 68.02 297.266 67.735 297.266 67.4141C297.266 67.1042 297.246 66.8275 297.208 66.584C297.174 66.335 297.102 66.1191 296.992 65.9365C296.887 65.7484 296.734 65.5879 296.535 65.4551C296.341 65.3223 296.087 65.2144 295.771 65.1313C295.456 65.0483 295.071 64.9875 294.618 64.9487C294.169 64.91 293.635 64.8906 293.016 64.8906H290.351C289.731 64.8906 289.194 64.91 288.741 64.9487C288.292 64.9875 287.911 65.0483 287.595 65.1313C287.285 65.2144 287.031 65.3223 286.832 65.4551C286.638 65.5879 286.486 65.7484 286.375 65.9365C286.27 66.1191 286.198 66.335 286.159 66.584C286.126 66.8275 286.109 67.1042 286.109 67.4141C286.109 67.735 286.129 68.02 286.167 68.269C286.206 68.5181 286.278 68.7367 286.383 68.9248C286.494 69.113 286.646 69.2707 286.84 69.3979C287.034 69.5252 287.288 69.6304 287.604 69.7134C287.919 69.7909 288.301 69.849 288.749 69.8877C289.197 69.9209 289.731 69.9375 290.351 69.9375H293.016ZM293.016 63.5625C293.884 63.5625 294.579 63.5321 295.099 63.4712C295.625 63.4048 296.026 63.2913 296.303 63.1309C296.585 62.9704 296.77 62.7546 296.859 62.4834C296.953 62.2067 297 61.8581 297 61.4375C297 61.1608 296.981 60.9173 296.942 60.707C296.909 60.4912 296.837 60.3058 296.726 60.1509C296.621 59.9904 296.469 59.8576 296.27 59.7524C296.076 59.6473 295.821 59.5615 295.506 59.4951C295.19 59.4287 294.806 59.3817 294.352 59.354C293.904 59.3263 293.37 59.3125 292.75 59.3125H290.617C289.997 59.3125 289.46 59.3263 289.006 59.354C288.558 59.3817 288.176 59.4287 287.861 59.4951C287.551 59.5615 287.296 59.6473 287.097 59.7524C286.903 59.8576 286.751 59.9904 286.641 60.1509C286.535 60.3058 286.464 60.4912 286.425 60.707C286.392 60.9173 286.375 61.1608 286.375 61.4375C286.375 61.7253 286.394 61.9771 286.433 62.1929C286.472 62.4087 286.544 62.5968 286.649 62.7573C286.76 62.9123 286.912 63.0423 287.105 63.1475C287.299 63.2526 287.554 63.3356 287.869 63.3965C288.185 63.4574 288.566 63.5016 289.015 63.5293C289.463 63.5514 289.997 63.5625 290.617 63.5625H293.016Z" fill="#EFE7E7"/>
<path d="M126.992 22.3438C128.535 22.3438 129.858 22.4072 130.962 22.5342C132.065 22.6611 132.993 22.8516 133.745 23.1055C134.507 23.3496 135.112 23.6572 135.562 24.0283C136.011 24.3994 136.357 24.8242 136.602 25.3027C136.846 25.7715 137.002 26.2988 137.07 26.8848C137.148 27.4707 137.188 28.1055 137.188 28.7891C137.188 29.4727 137.124 30.1172 136.997 30.7227C136.88 31.3184 136.665 31.8652 136.353 32.3633C136.04 32.8613 135.615 33.3057 135.078 33.6963C134.541 34.0869 133.857 34.4189 133.027 34.6924C132.197 34.9658 131.196 35.1709 130.024 35.3076C128.862 35.4541 127.5 35.5273 125.938 35.5273H122.188C120.781 35.5273 119.551 35.4736 118.496 35.3662C117.441 35.2588 116.533 35.0977 115.771 34.8828C115.01 34.6582 114.38 34.3799 113.882 34.0479C113.384 33.7061 112.983 33.3105 112.681 32.8613C112.388 32.4023 112.183 31.8848 112.065 31.3086C111.948 30.7227 111.89 30.0781 111.89 29.375H114.702C114.702 30.2539 114.829 30.9424 115.083 31.4404C115.337 31.9385 115.757 32.3145 116.343 32.5684C116.929 32.8125 117.695 32.9688 118.643 33.0371C119.6 33.0957 120.781 33.125 122.188 33.125H125.938C127.578 33.125 128.94 33.0469 130.024 32.8906C131.108 32.7344 131.973 32.4854 132.617 32.1436C133.262 31.8018 133.716 31.3574 133.979 30.8105C134.243 30.2539 134.375 29.5801 134.375 28.7891C134.375 27.998 134.282 27.3389 134.097 26.8115C133.921 26.2842 133.564 25.8643 133.027 25.5518C132.5 25.2393 131.753 25.0195 130.786 24.8926C129.819 24.7559 128.555 24.6875 126.992 24.6875H123.125C121.406 24.6875 119.932 24.624 118.701 24.4971C117.48 24.3701 116.455 24.1895 115.625 23.9551C114.795 23.7109 114.131 23.4131 113.633 23.0615C113.135 22.7002 112.754 22.29 112.49 21.8311C112.236 21.3721 112.07 20.8643 111.992 20.3076C111.914 19.7412 111.875 19.1309 111.875 18.4766C111.875 17.793 111.934 17.1582 112.051 16.5723C112.178 15.9863 112.407 15.459 112.739 14.9902C113.071 14.5117 113.525 14.0869 114.102 13.7158C114.678 13.3447 115.415 13.0371 116.313 12.793C117.222 12.5391 118.311 12.3486 119.58 12.2217C120.85 12.0947 122.344 12.0312 124.062 12.0312H126.875C128.281 12.0312 129.512 12.085 130.566 12.1924C131.621 12.29 132.529 12.4512 133.291 12.6758C134.053 12.8906 134.683 13.1641 135.181 13.4961C135.688 13.8184 136.089 14.209 136.382 14.668C136.685 15.1172 136.895 15.6299 137.012 16.2061C137.129 16.7822 137.188 17.4219 137.188 18.125H134.375C134.375 17.2461 134.248 16.5576 133.994 16.0596C133.74 15.5615 133.32 15.1904 132.734 14.9463C132.148 14.6924 131.377 14.5361 130.42 14.4775C129.463 14.4092 128.281 14.375 126.875 14.375H124.062C122.188 14.375 120.645 14.4434 119.434 14.5801C118.223 14.707 117.266 14.9268 116.562 15.2393C115.859 15.5518 115.371 15.9717 115.098 16.499C114.824 17.0264 114.688 17.6855 114.688 18.4766C114.688 18.9648 114.722 19.3994 114.79 19.7803C114.858 20.1611 114.995 20.498 115.2 20.791C115.415 21.0742 115.713 21.3135 116.094 21.5088C116.475 21.7041 116.978 21.8652 117.603 21.9922C118.228 22.1191 118.989 22.2119 119.888 22.2705C120.796 22.3193 121.875 22.3438 123.125 22.3438H126.992ZM140.938 12.5H143.75V24.8047H144.688L155 18.125H159.219L147.266 25.9766L159.688 35H155.469L144.688 26.9141H143.75V35H140.938V12.5ZM162.5 18.125H165.312V35H162.5V18.125ZM165.312 15.3125H162.5V12.5H165.312V15.3125ZM170.938 12.5H173.75V35H170.938V12.5ZM179.375 12.5H182.188V35H179.375V12.5ZM227.202 12.5V23.75C227.202 25.0781 227.183 26.2891 227.144 27.3828C227.114 28.4766 227.002 29.458 226.807 30.3271C226.621 31.1963 226.323 31.9531 225.913 32.5977C225.503 33.2422 224.917 33.7793 224.155 34.209C223.394 34.6289 222.422 34.9414 221.24 35.1465C220.068 35.3613 218.623 35.4688 216.904 35.4688H210.312C208.594 35.4688 207.144 35.3613 205.962 35.1465C204.79 34.9414 203.823 34.6289 203.062 34.209C202.3 33.7793 201.709 33.2422 201.289 32.5977C200.879 31.9531 200.576 31.1963 200.381 30.3271C200.195 29.458 200.088 28.4766 200.059 27.3828C200.029 26.2891 200.015 25.0781 200.015 23.75V12.5H202.827V23.75C202.827 25.1562 202.837 26.3672 202.856 27.3828C202.886 28.3887 202.969 29.2383 203.105 29.9316C203.242 30.625 203.457 31.1816 203.75 31.6016C204.053 32.0215 204.482 32.3438 205.039 32.5684C205.596 32.793 206.299 32.9443 207.148 33.0225C208.008 33.0908 209.062 33.125 210.312 33.125H216.904C218.145 33.125 219.194 33.0908 220.054 33.0225C220.913 32.9443 221.616 32.793 222.163 32.5684C222.72 32.3438 223.149 32.0215 223.452 31.6016C223.755 31.1816 223.975 30.625 224.111 29.9316C224.258 29.2383 224.341 28.3887 224.36 27.3828C224.38 26.3672 224.39 25.1562 224.39 23.75L224.375 12.5H227.202ZM247.842 35V25.625C247.842 24.5801 247.764 23.7012 247.607 22.9883C247.451 22.2656 247.139 21.6846 246.67 21.2451C246.201 20.8057 245.537 20.4883 244.678 20.293C243.818 20.0977 242.686 20 241.279 20C239.756 20 238.506 20.1123 237.529 20.3369C236.562 20.5615 235.801 20.8789 235.244 21.2891C234.688 21.6992 234.302 22.1924 234.087 22.7686C233.882 23.3447 233.779 23.9844 233.779 24.6875V35H230.967V18.125H233.779V20.9375C233.984 20.459 234.277 20.0488 234.658 19.707C235.039 19.3555 235.469 19.0576 235.947 18.8135C236.426 18.5693 236.943 18.374 237.5 18.2275C238.057 18.0713 238.613 17.9541 239.17 17.876C239.727 17.7881 240.264 17.7295 240.781 17.7002C241.309 17.6709 241.787 17.6562 242.217 17.6562C243.467 17.6562 244.541 17.7344 245.439 17.8906C246.348 18.0469 247.114 18.2764 247.739 18.5791C248.374 18.8818 248.882 19.2578 249.263 19.707C249.644 20.1562 249.937 20.6787 250.142 21.2744C250.356 21.8604 250.498 22.5195 250.566 23.252C250.635 23.9746 250.669 24.7656 250.669 25.625L250.654 35H247.842ZM255.371 18.125H258.184V35H255.371V18.125ZM258.184 15.3125H255.371V12.5H258.184V15.3125ZM262.402 26.4453C262.402 24.7168 262.588 23.2861 262.959 22.1533C263.33 21.0205 263.926 20.1221 264.746 19.458C265.566 18.7939 266.631 18.3301 267.939 18.0664C269.248 17.793 270.84 17.6562 272.715 17.6562C274.59 17.6562 276.182 17.793 277.49 18.0664C278.799 18.3301 279.863 18.7939 280.684 19.458C281.504 20.1221 282.1 21.0205 282.471 22.1533C282.842 23.2861 283.027 24.7168 283.027 26.4453C283.027 28.1738 282.842 29.6094 282.471 30.752C282.1 31.8945 281.504 32.8027 280.684 33.4766C279.863 34.1504 278.799 34.6289 277.49 34.9121C276.182 35.1855 274.59 35.3223 272.715 35.3223C270.84 35.3223 269.248 35.1855 267.939 34.9121C266.631 34.6289 265.566 34.1504 264.746 33.4766C263.926 32.8027 263.33 31.8945 262.959 30.752C262.588 29.6094 262.402 28.1738 262.402 26.4453ZM265.215 26.4453C265.215 27.3828 265.249 28.1982 265.317 28.8916C265.386 29.585 265.513 30.1807 265.698 30.6787C265.894 31.1768 266.162 31.582 266.504 31.8945C266.846 32.207 267.295 32.4561 267.852 32.6416C268.408 32.8271 269.082 32.9541 269.873 33.0225C270.674 33.0908 271.621 33.125 272.715 33.125C273.652 33.125 274.487 33.1055 275.22 33.0664C275.962 33.0176 276.606 32.915 277.153 32.7588C277.71 32.6025 278.184 32.3828 278.574 32.0996C278.965 31.8066 279.277 31.4111 279.512 30.9131C279.756 30.415 279.932 29.8047 280.039 29.082C280.156 28.3496 280.215 27.4707 280.215 26.4453C280.215 25.4395 280.156 24.585 280.039 23.8818C279.932 23.1689 279.756 22.5732 279.512 22.0947C279.277 21.6162 278.965 21.2402 278.574 20.9668C278.184 20.6836 277.71 20.4736 277.153 20.3369C276.606 20.1904 275.962 20.0977 275.22 20.0586C274.487 20.0195 273.652 20 272.715 20C271.777 20 270.938 20.0195 270.195 20.0586C269.463 20.0977 268.818 20.1904 268.262 20.3369C267.715 20.4736 267.246 20.6836 266.855 20.9668C266.465 21.2402 266.147 21.6162 265.903 22.0947C265.669 22.5732 265.493 23.1689 265.376 23.8818C265.269 24.585 265.215 25.4395 265.215 26.4453ZM303.184 35V25.625C303.184 24.5801 303.105 23.7012 302.949 22.9883C302.793 22.2656 302.48 21.6846 302.012 21.2451C301.543 20.8057 300.879 20.4883 300.02 20.293C299.16 20.0977 298.027 20 296.621 20C295.098 20 293.848 20.1123 292.871 20.3369C291.904 20.5615 291.143 20.8789 290.586 21.2891C290.029 21.6992 289.644 22.1924 289.429 22.7686C289.224 23.3447 289.121 23.9844 289.121 24.6875V35H286.309V18.125H289.121V20.9375C289.326 20.459 289.619 20.0488 290 19.707C290.381 19.3555 290.811 19.0576 291.289 18.8135C291.768 18.5693 292.285 18.374 292.842 18.2275C293.398 18.0713 293.955 17.9541 294.512 17.876C295.068 17.7881 295.605 17.7295 296.123 17.7002C296.65 17.6709 297.129 17.6562 297.559 17.6562C298.809 17.6562 299.883 17.7344 300.781 17.8906C301.689 18.0469 302.456 18.2764 303.081 18.5791C303.716 18.8818 304.224 19.2578 304.604 19.707C304.985 20.1562 305.278 20.6787 305.483 21.2744C305.698 21.8604 305.84 22.5195 305.908 23.252C305.977 23.9746 306.011 24.7656 306.011 25.625L305.996 35H303.184Z" fill="url(#paint0_linear_111_22)"/>
<g clip-path="url(#clip0_111_22)">
<path d="M8.44833 62.9373L4.62826 60.7627L0.808151 58.5882L0 58.1423L0.0028112 57.3674L0.00274263 52.0444V46.7005L0.00301689 45.2346L1.54177 46.106L13.1813 52.8915L24.8207 59.677C26.6398 60.7557 28.7325 61.994 30.5515 63.0728C30.5544 70.7396 30.5471 70.7409 30.5544 75.0741L30.5515 75.9502L29.1732 75.1214C22.4301 70.905 15.5948 67.1121 8.44878 62.9373H8.44833ZM39.5601 76L39.5534 74.3584L39.5402 66.3306L39.5357 58.4295C12.7751 42.8689 12.4916 42.6509 1.35417 36.2879L0.00383968 35.4362V34.5166C0.00383968 28.9103 0.00381489 22.5057 0.00370255 17.7487L0.656037 17.3483L4.88689 14.8497L9.11778 12.3511L10.817 11.3299L10.8142 11.6708C10.8254 20.33 10.8254 20.3297 10.8229 28.6905C23.4833 36.2851 23.813 36.3903 50.2407 51.618L50.2864 60.079L50.2255 68.6944C39.6117 75.9527 50.2477 68.6821 39.5609 76H39.5601ZM59.2599 46.6708C39.4775 35.3121 38.9387 35.2203 19.8091 24.0938C19.8319 12.0825 19.8291 12.0819 19.8246 6.14713L24.6739 3.45626L29.4397 0.813581L30.5355 0.154899L30.5487 1.49975V9.59683V17.6939C43.0267 24.8288 43.0239 24.783 67.931 39.187L69.997 40.352L69.9729 40.9377L69.9727 49.395L69.9725 57.8283C62.2717 62.7774 62.2599 62.77 59.2648 64.6661C59.2617 61.79 59.2651 61.7916 59.2559 46.6702L59.2599 46.6708ZM46.6492 17.0778L39.5547 12.9665V7.06445V1.16244L39.5679 0L41.8793 1.39926C51.3971 7.16118 51.6258 7.16031 69.9888 17.7861V23.4719V29.1577L70 30.4425L68.479 29.6263C53.9021 21.2702 53.9123 21.2864 46.6499 17.0778H46.6492Z" fill="url(#paint1_radial_111_22)"/>
</g>
<defs>
<linearGradient id="paint0_linear_111_22" x1="60.3988" y1="-10.4428" x2="256.045" y2="54.3554" gradientUnits="userSpaceOnUse">
<stop stop-color="#7D7E85"/>
<stop offset="0.73" stop-color="#EEEDF2"/>
<stop offset="1" stop-color="#7D7E85"/>
</linearGradient>
<radialGradient id="paint1_radial_111_22" cx="0" cy="0" r="1" gradientUnits="userSpaceOnUse" gradientTransform="translate(43.9685 31.9809) rotate(-140.293) scale(20.1149 109.892)">
<stop stop-color="#EEEDF2"/>
<stop offset="1" stop-color="#7D7E85"/>
</radialGradient>
<clipPath id="clip0_111_22">
<rect width="70" height="76" fill="white"/>
</clipPath>
</defs>
</svg>
