<svg width="280" height="62" viewBox="0 0 280 62" fill="none" xmlns="http://www.w3.org/2000/svg">
<path d="M98.9922 26.3438C100.535 26.3438 101.858 26.4072 102.962 26.5342C104.065 26.6611 104.993 26.8516 105.745 27.1055C106.507 27.3496 107.112 27.6572 107.562 28.0283C108.011 28.3994 108.357 28.8242 108.602 29.3027C108.846 29.7715 109.002 30.2988 109.07 30.8848C109.148 31.4707 109.188 32.1055 109.188 32.7891C109.188 33.4727 109.124 34.1172 108.997 34.7227C108.88 35.3184 108.665 35.8652 108.353 36.3633C108.04 36.8613 107.615 37.3057 107.078 37.6963C106.541 38.0869 105.857 38.4189 105.027 38.6924C104.197 38.9658 103.196 39.1709 102.024 39.3076C100.862 39.4541 99.5 39.5273 97.9375 39.5273H94.1875C92.7812 39.5273 91.5508 39.4736 90.4961 39.3662C89.4414 39.2588 88.5332 39.0977 87.7715 38.8828C87.0098 38.6582 86.3799 38.3799 85.8818 38.0479C85.3838 37.7061 84.9834 37.3105 84.6807 36.8613C84.3877 36.4023 84.1826 35.8848 84.0654 35.3086C83.9482 34.7227 83.8896 34.0781 83.8896 33.375H86.7021C86.7021 34.2539 86.8291 34.9424 87.083 35.4404C87.3369 35.9385 87.7568 36.3145 88.3428 36.5684C88.9287 36.8125 89.6953 36.9688 90.6426 37.0371C91.5996 37.0957 92.7812 37.125 94.1875 37.125H97.9375C99.5781 37.125 100.94 37.0469 102.024 36.8906C103.108 36.7344 103.973 36.4854 104.617 36.1436C105.262 35.8018 105.716 35.3574 105.979 34.8105C106.243 34.2539 106.375 33.5801 106.375 32.7891C106.375 31.998 106.282 31.3389 106.097 30.8115C105.921 30.2842 105.564 29.8643 105.027 29.5518C104.5 29.2393 103.753 29.0195 102.786 28.8926C101.819 28.7559 100.555 28.6875 98.9922 28.6875H95.125C93.4062 28.6875 91.9316 28.624 90.7012 28.4971C89.4805 28.3701 88.4551 28.1895 87.625 27.9551C86.7949 27.7109 86.1309 27.4131 85.6328 27.0615C85.1348 26.7002 84.7539 26.29 84.4902 25.8311C84.2363 25.3721 84.0703 24.8643 83.9922 24.3076C83.9141 23.7412 83.875 23.1309 83.875 22.4766C83.875 21.793 83.9336 21.1582 84.0508 20.5723C84.1777 19.9863 84.4072 19.459 84.7393 18.9902C85.0713 18.5117 85.5254 18.0869 86.1016 17.7158C86.6777 17.3447 87.415 17.0371 88.3135 16.793C89.2217 16.5391 90.3105 16.3486 91.5801 16.2217C92.8496 16.0947 94.3438 16.0312 96.0625 16.0312H98.875C100.281 16.0312 101.512 16.085 102.566 16.1924C103.621 16.29 104.529 16.4512 105.291 16.6758C106.053 16.8906 106.683 17.1641 107.181 17.4961C107.688 17.8184 108.089 18.209 108.382 18.668C108.685 19.1172 108.895 19.6299 109.012 20.2061C109.129 20.7822 109.188 21.4219 109.188 22.125H106.375C106.375 21.2461 106.248 20.5576 105.994 20.0596C105.74 19.5615 105.32 19.1904 104.734 18.9463C104.148 18.6924 103.377 18.5361 102.42 18.4775C101.463 18.4092 100.281 18.375 98.875 18.375H96.0625C94.1875 18.375 92.6445 18.4434 91.4336 18.5801C90.2227 18.707 89.2656 18.9268 88.5625 19.2393C87.8594 19.5518 87.3711 19.9717 87.0977 20.499C86.8242 21.0264 86.6875 21.6855 86.6875 22.4766C86.6875 22.9648 86.7217 23.3994 86.79 23.7803C86.8584 24.1611 86.9951 24.498 87.2002 24.791C87.415 25.0742 87.7129 25.3135 88.0938 25.5088C88.4746 25.7041 88.9775 25.8652 89.6025 25.9922C90.2275 26.1191 90.9893 26.2119 91.8877 26.2705C92.7959 26.3193 93.875 26.3438 95.125 26.3438H98.9922ZM112.938 16.5H115.75V28.8047H116.688L127 22.125H131.219L119.266 29.9766L131.688 39H127.469L116.688 30.9141H115.75V39H112.938V16.5ZM134.5 22.125H137.312V39H134.5V22.125ZM137.312 19.3125H134.5V16.5H137.312V19.3125ZM142.938 16.5H145.75V39H142.938V16.5ZM151.375 16.5H154.188V39H151.375V16.5ZM199.202 16.5V27.75C199.202 29.0781 199.183 30.2891 199.144 31.3828C199.114 32.4766 199.002 33.458 198.807 34.3271C198.621 35.1963 198.323 35.9531 197.913 36.5977C197.503 37.2422 196.917 37.7793 196.155 38.209C195.394 38.6289 194.422 38.9414 193.24 39.1465C192.068 39.3613 190.623 39.4688 188.904 39.4688H182.312C180.594 39.4688 179.144 39.3613 177.962 39.1465C176.79 38.9414 175.823 38.6289 175.062 38.209C174.3 37.7793 173.709 37.2422 173.289 36.5977C172.879 35.9531 172.576 35.1963 172.381 34.3271C172.195 33.458 172.088 32.4766 172.059 31.3828C172.029 30.2891 172.015 29.0781 172.015 27.75V16.5H174.827V27.75C174.827 29.1562 174.837 30.3672 174.856 31.3828C174.886 32.3887 174.969 33.2383 175.105 33.9316C175.242 34.625 175.457 35.1816 175.75 35.6016C176.053 36.0215 176.482 36.3438 177.039 36.5684C177.596 36.793 178.299 36.9443 179.148 37.0225C180.008 37.0908 181.062 37.125 182.312 37.125H188.904C190.145 37.125 191.194 37.0908 192.054 37.0225C192.913 36.9443 193.616 36.793 194.163 36.5684C194.72 36.3438 195.149 36.0215 195.452 35.6016C195.755 35.1816 195.975 34.625 196.111 33.9316C196.258 33.2383 196.341 32.3887 196.36 31.3828C196.38 30.3672 196.39 29.1562 196.39 27.75L196.375 16.5H199.202ZM219.842 39V29.625C219.842 28.5801 219.764 27.7012 219.607 26.9883C219.451 26.2656 219.139 25.6846 218.67 25.2451C218.201 24.8057 217.537 24.4883 216.678 24.293C215.818 24.0977 214.686 24 213.279 24C211.756 24 210.506 24.1123 209.529 24.3369C208.562 24.5615 207.801 24.8789 207.244 25.2891C206.688 25.6992 206.302 26.1924 206.087 26.7686C205.882 27.3447 205.779 27.9844 205.779 28.6875V39H202.967V22.125H205.779V24.9375C205.984 24.459 206.277 24.0488 206.658 23.707C207.039 23.3555 207.469 23.0576 207.947 22.8135C208.426 22.5693 208.943 22.374 209.5 22.2275C210.057 22.0713 210.613 21.9541 211.17 21.876C211.727 21.7881 212.264 21.7295 212.781 21.7002C213.309 21.6709 213.787 21.6562 214.217 21.6562C215.467 21.6562 216.541 21.7344 217.439 21.8906C218.348 22.0469 219.114 22.2764 219.739 22.5791C220.374 22.8818 220.882 23.2578 221.263 23.707C221.644 24.1562 221.937 24.6787 222.142 25.2744C222.356 25.8604 222.498 26.5195 222.566 27.252C222.635 27.9746 222.669 28.7656 222.669 29.625L222.654 39H219.842ZM227.371 22.125H230.184V39H227.371V22.125ZM230.184 19.3125H227.371V16.5H230.184V19.3125ZM234.402 30.4453C234.402 28.7168 234.588 27.2861 234.959 26.1533C235.33 25.0205 235.926 24.1221 236.746 23.458C237.566 22.7939 238.631 22.3301 239.939 22.0664C241.248 21.793 242.84 21.6562 244.715 21.6562C246.59 21.6562 248.182 21.793 249.49 22.0664C250.799 22.3301 251.863 22.7939 252.684 23.458C253.504 24.1221 254.1 25.0205 254.471 26.1533C254.842 27.2861 255.027 28.7168 255.027 30.4453C255.027 32.1738 254.842 33.6094 254.471 34.752C254.1 35.8945 253.504 36.8027 252.684 37.4766C251.863 38.1504 250.799 38.6289 249.49 38.9121C248.182 39.1855 246.59 39.3223 244.715 39.3223C242.84 39.3223 241.248 39.1855 239.939 38.9121C238.631 38.6289 237.566 38.1504 236.746 37.4766C235.926 36.8027 235.33 35.8945 234.959 34.752C234.588 33.6094 234.402 32.1738 234.402 30.4453ZM237.215 30.4453C237.215 31.3828 237.249 32.1982 237.317 32.8916C237.386 33.585 237.513 34.1807 237.698 34.6787C237.894 35.1768 238.162 35.582 238.504 35.8945C238.846 36.207 239.295 36.4561 239.852 36.6416C240.408 36.8271 241.082 36.9541 241.873 37.0225C242.674 37.0908 243.621 37.125 244.715 37.125C245.652 37.125 246.487 37.1055 247.22 37.0664C247.962 37.0176 248.606 36.915 249.153 36.7588C249.71 36.6025 250.184 36.3828 250.574 36.0996C250.965 35.8066 251.277 35.4111 251.512 34.9131C251.756 34.415 251.932 33.8047 252.039 33.082C252.156 32.3496 252.215 31.4707 252.215 30.4453C252.215 29.4395 252.156 28.585 252.039 27.8818C251.932 27.1689 251.756 26.5732 251.512 26.0947C251.277 25.6162 250.965 25.2402 250.574 24.9668C250.184 24.6836 249.71 24.4736 249.153 24.3369C248.606 24.1904 247.962 24.0977 247.22 24.0586C246.487 24.0195 245.652 24 244.715 24C243.777 24 242.938 24.0195 242.195 24.0586C241.463 24.0977 240.818 24.1904 240.262 24.3369C239.715 24.4736 239.246 24.6836 238.855 24.9668C238.465 25.2402 238.147 25.6162 237.903 26.0947C237.669 26.5732 237.493 27.1689 237.376 27.8818C237.269 28.585 237.215 29.4395 237.215 30.4453ZM275.184 39V29.625C275.184 28.5801 275.105 27.7012 274.949 26.9883C274.793 26.2656 274.48 25.6846 274.012 25.2451C273.543 24.8057 272.879 24.4883 272.02 24.293C271.16 24.0977 270.027 24 268.621 24C267.098 24 265.848 24.1123 264.871 24.3369C263.904 24.5615 263.143 24.8789 262.586 25.2891C262.029 25.6992 261.644 26.1924 261.429 26.7686C261.224 27.3447 261.121 27.9844 261.121 28.6875V39H258.309V22.125H261.121V24.9375C261.326 24.459 261.619 24.0488 262 23.707C262.381 23.3555 262.811 23.0576 263.289 22.8135C263.768 22.5693 264.285 22.374 264.842 22.2275C265.398 22.0713 265.955 21.9541 266.512 21.876C267.068 21.7881 267.605 21.7295 268.123 21.7002C268.65 21.6709 269.129 21.6562 269.559 21.6562C270.809 21.6562 271.883 21.7344 272.781 21.8906C273.689 22.0469 274.456 22.2764 275.081 22.5791C275.716 22.8818 276.224 23.2578 276.604 23.707C276.985 24.1562 277.278 24.6787 277.483 25.2744C277.698 25.8604 277.84 26.5195 277.908 27.252C277.977 27.9746 278.011 28.7656 278.011 29.625L277.996 39H275.184Z" fill="url(#paint0_linear_102_19)"/>
<g clip-path="url(#clip0_102_19)">
<path d="M6.87936 51.3436L3.76873 49.5696L0.658065 47.7957L0 47.4319L0.00228912 46.7997L0.00223329 42.4573V38.0978L0.00245661 36.9019L1.25544 37.6128L10.7333 43.1484L20.2111 48.6839C21.6924 49.5639 23.3964 50.5741 24.8777 51.4541C24.88 57.7086 24.874 57.7097 24.88 61.2446L24.8777 61.9593L23.7553 61.2832C18.2645 57.8436 12.6987 54.7493 6.87972 51.3436H6.87936ZM32.2132 62L32.2077 60.6608L32.197 54.1118L32.1933 47.6662C10.4026 34.972 10.1717 34.7941 1.10268 29.6033L0.0031266 28.9085V28.1583C0.0031266 23.5847 0.00310641 18.3599 0.00301494 14.4792L0.534202 14.1526L3.97932 12.1142L7.42447 10.0759L8.80813 9.24283L8.80585 9.52088C8.81499 16.585 8.81499 16.5847 8.81294 23.4054C19.1221 29.601 19.3906 29.6869 40.9103 42.1094L40.9475 49.0118L40.8979 56.0402C32.2553 61.9614 40.916 56.0301 32.2139 62H32.2132ZM48.2545 38.0735C32.146 28.8073 31.7073 28.7323 16.1303 19.6555C16.1488 9.8568 16.1465 9.85625 16.1429 5.01476L20.0916 2.81958L23.9723 0.66371L24.8646 0.126365L24.8754 1.22348V7.82899V14.4345C35.036 20.2551 35.0337 20.2177 55.3152 31.9684L56.9976 32.9188L56.9779 33.3966L56.9778 40.2959L56.9776 47.1757C50.7069 51.2131 50.6974 51.2071 48.2585 52.7539C48.256 50.4076 48.2587 50.409 48.2512 38.073L48.2545 38.0735ZM37.9858 13.9319L32.2088 10.5779V5.7631V0.948306L32.2196 0L34.1017 1.1415C41.852 5.84201 42.0382 5.8413 56.9909 14.5097V19.1482V23.7866L57 24.8347L55.7615 24.1688C43.8917 17.352 43.9 17.3652 37.9863 13.9319H37.9858Z" fill="url(#paint1_radial_102_19)"/>
</g>
<defs>
<linearGradient id="paint0_linear_102_19" x1="32.3988" y1="-6.44285" x2="186.817" y2="59.421" gradientUnits="userSpaceOnUse">
<stop stop-color="#7D7E85"/>
<stop offset="0.56" stop-color="#EEEDF2"/>
<stop offset="1" stop-color="#7D7E85"/>
</linearGradient>
<radialGradient id="paint1_radial_102_19" cx="0" cy="0" r="1" gradientUnits="userSpaceOnUse" gradientTransform="translate(35.8029 26.0897) rotate(-140.241) scale(16.3916 89.5808)">
<stop stop-color="#EEEDF2"/>
<stop offset="1" stop-color="#7D7E85"/>
</radialGradient>
<clipPath id="clip0_102_19">
<rect width="57" height="62" fill="white"/>
</clipPath>
</defs>
</svg>
