<?xml version="1.0" encoding="UTF-8" standalone="no"?>
<!-- Created with Inkscape (http://www.inkscape.org/) -->

<svg
   width="7.1335902mm"
   height="7.9374957mm"
   viewBox="0 0 7.13359 7.9374956"
   version="1.1"
   id="svg1"
   xml:space="preserve"
   inkscape:version="1.3.1 (9b9bdc1480, 2023-11-25, custom)"
   sodipodi:docname="cart_icon.svg"
   xmlns:inkscape="http://www.inkscape.org/namespaces/inkscape"
   xmlns:sodipodi="http://sodipodi.sourceforge.net/DTD/sodipodi-0.dtd"
   xmlns="http://www.w3.org/2000/svg"
   xmlns:svg="http://www.w3.org/2000/svg"><sodipodi:namedview
     id="namedview1"
     pagecolor="#ffffff"
     bordercolor="#000000"
     borderopacity="0.25"
     inkscape:showpageshadow="2"
     inkscape:pageopacity="0.0"
     inkscape:pagecheckerboard="0"
     inkscape:deskcolor="#d1d1d1"
     inkscape:document-units="mm"
     inkscape:zoom="2.9077441"
     inkscape:cx="34.562877"
     inkscape:cy="-42.644743"
     inkscape:window-width="1850"
     inkscape:window-height="1016"
     inkscape:window-x="0"
     inkscape:window-y="0"
     inkscape:window-maximized="1"
     inkscape:current-layer="layer1"
     showgrid="false" /><defs
     id="defs1" /><g
     inkscape:label="Layer 1"
     inkscape:groupmode="layer"
     id="layer1"
     transform="translate(-175.8134,-127.48719)"><path
       style="fill:#5e5b5b;fill-opacity:1;stroke-width:1"
       d="m 175.8134,135.30314 c 3.1e-4,-0.067 0.14482,-1.32508 0.32096,-2.79608 0.17611,-1.47098 0.32165,-2.76569 0.32341,-2.87712 l 0.004,-0.20262 h 0.64836 0.64837 c 0,0 -0.009,-0.35069 0.10558,-0.82574 0.29873,-1.24571 1.79135,-1.32038 2.4388,-0.84045 0.42556,0.31543 0.69023,0.86757 0.69743,1.33394 0.007,0.46635 0,0.33223 0,0.33223 h 0.64835 0.64838 l 0.005,0.20261 c 9e-4,0.1115 0.14733,1.40617 0.32341,2.87712 0.17611,1.47101 0.32055,2.72922 0.32098,2.7961 l 5.6e-4,0.12156 h -3.56604 -3.566 z m 6.75213,-0.7294 c -0.0501,-0.28974 -0.16883,-1.25621 -0.26394,-2.14772 -0.0951,-0.89149 -0.21147,-1.85798 -0.25857,-2.14771 l -0.0856,-0.5268 h -0.48506 -0.48508 l 0.0468,0.44575 c 0,0 0.15093,0.33003 0.0468,0.44577 -0.10424,0.11564 -0.38205,0.11564 -0.48627,0 -0.10425,-0.1158 0.0468,-0.44577 0.0468,-0.44577 l 0.0468,-0.44575 h -1.30901 -1.30899 l 0.0468,0.44575 c 0,0 0.15091,0.33003 0.0468,0.44577 -0.10425,0.11564 -0.38204,0.11564 -0.48627,0 -0.10424,-0.1158 0.0468,-0.44577 0.0468,-0.44577 l 0.0468,-0.44575 h -0.48556 -0.48506 l -0.0856,0.5268 c -0.0471,0.28973 -0.16343,1.25622 -0.25857,2.14771 -0.0951,0.89151 -0.21386,1.85798 -0.26394,2.14772 l -0.0911,0.52679 h 3.27792 3.27792 z m -4.44856,-5.72707 c -0.0496,0.21357 -0.0351,0.58065 -0.0351,0.58065 h 1.29673 1.29674 c 0.22371,-1.85287 -2.12896,-2.17476 -2.55841,-0.58065 -0.42944,1.59411 -1e-5,0 -1e-5,0 z"
       id="path2"
       sodipodi:nodetypes="cscccczzzccccsccccccsscccczzccccczzcccccsscccczccczz" /></g></svg>
