<?xml version="1.0" encoding="UTF-8" standalone="no"?>
<!-- Created with Inkscape (http://www.inkscape.org/) -->
<svg width="15.682648mm" height="15.680328mm" viewBox="0 0 15.682648 15.680328" version="1.1" id="svg5" xml:space="preserve" inkscape:version="1.2.2 (1:1.2.2+202212051552+b0a8486541)" sodipodi:docname="pin.svg" xmlns:inkscape="http://www.inkscape.org/namespaces/inkscape" xmlns:sodipodi="http://sodipodi.sourceforge.net/DTD/sodipodi-0.dtd" xmlns="http://www.w3.org/2000/svg" xmlns:svg="http://www.w3.org/2000/svg"><sodipodi:namedview id="namedview7" pagecolor="#ffffff" bordercolor="#000000" borderopacity="0.25" inkscape:showpageshadow="2" inkscape:pageopacity="0.0" inkscape:pagecheckerboard="0" inkscape:deskcolor="#d1d1d1" inkscape:document-units="mm" showgrid="false" inkscape:zoom="1.4142136" inkscape:cx="-65.053824" inkscape:cy="123.39013" inkscape:window-width="1846" inkscape:window-height="1016" inkscape:window-x="0" inkscape:window-y="0" inkscape:window-maximized="1" inkscape:current-layer="layer1"/><defs id="defs2"/><g inkscape:label="Слой 1" inkscape:groupmode="layer" id="layer1" transform="translate(-74.968666,-56.891101)"><path id="path304" style="fill:#b2a2a0;fill-opacity:1;stroke-width:0.264583" d="m 82.856958,56.891101 c -2.407762,0 -3.932317,0.614173 -5.55625,2.238106 -4.146126,4.146126 -2.538683,11.036732 3.040641,13.034347 2.688286,0.96251 5.968354,0.181658 8.071859,-1.921847 1.623933,-1.623933 2.238106,-3.148488 2.238106,-5.55625 0,-2.407761 -0.614173,-3.932316 -2.238106,-5.55625 -1.623933,-1.623933 -3.148488,-2.238106 -5.55625,-2.238106 z m -0.02739,0.280603 c 2.11425,1.63e-4 4.230663,0.854031 5.603793,2.41794 3.33673,3.800326 2.230997,9.683342 -2.221053,11.817367 -5.166279,2.47638 -10.883647,-1.068831 -10.851017,-6.728272 0.01744,-3.02451 1.543231,-5.457571 4.25452,-6.784082 0.999207,-0.488866 2.106294,-0.723038 3.213757,-0.722953 z m -0.07493,3.335197 c -1.165946,0.01012 -2.340816,0.508551 -3.194121,1.627291 -1.691957,2.21827 -0.995539,5.030834 1.576648,6.368603 2.41728,1.257205 5.563249,-0.542441 5.881295,-3.364135 0.311711,-2.765491 -1.959046,-4.651769 -4.263822,-4.631759 z m 0.05529,2.20245 c 0.109313,0 0.197404,0.08809 0.197404,0.197404 v 1.62729 h 1.627291 c 0.109313,0 0.197404,0.08809 0.197404,0.197404 0,0.109313 -0.08809,0.197404 -0.197404,0.197404 h -1.627291 v 1.627291 c 0,0.109312 -0.08809,0.197404 -0.197404,0.197404 -0.109312,0 -0.197404,-0.08809 -0.197404,-0.197404 v -1.627291 h -1.62729 c -0.109313,0 -0.197404,-0.08809 -0.197404,-0.197404 0,-0.109313 0.08809,-0.197404 0.197404,-0.197404 h 1.62729 v -1.62729 c 0,-0.109312 0.08809,-0.197404 0.197404,-0.197404 z"/></g></svg>